<svg xmlns="http://www.w3.org/2000/svg">

    <symbol id="woman" viewBox="0 0 464 464">
        <title>woman</title>
        <path d="m386.001 416.74v39.26c0 4.42-3.58 8-8 8h-292c-4.42 0-8-3.58-8-8v-39.26c0-30.19 17.95-56.2 43.76-67.93-10.531-8.379-26.582-19.641-38.26-43.87-16.265-33.698-13.481-73.452 7.24-104.57 11.26-16.9 17.26-36.74 17.26-57.04v-43.33c0-55.23 44.77-100 100-100h48c55.23 0 100 44.77 100 100 0 45.887-1.121 54.873 4.41 73.12 7.805 25.801 18.114 28.993 26.06 55.25 12.491 41.274-1.326 86.287-35.37 113.39l-8.86 7.05c25.81 11.73 43.76 37.74 43.76 67.93z" fill="#ffdfba"/>
        <path d="m386.001 416.74v39.26c0 4.418-3.582 8-8 8h-292c-4.418 0-8-3.582-8-8v-39.26c0-41.162 33.369-74.57 74.57-74.57 6.13 0 11.95-1.33 17.18-3.71l.25.54 57.103 44.208c2.883 2.232 6.911 2.232 9.795 0l57.102-44.208.25-.54c5.23 2.38 11.05 3.71 17.18 3.71 41.041 0 74.57 33.249 74.57 74.57z" fill="#ffaa64"/>
        <path d="m323.429 146.258c4.247.242 7.572 3.732 7.572 7.986v47.886c0 41.27-25.25 76.64-61.15 91.5-64.917 26.947-136.85-20.924-136.85-91.5v-47.19c0-4.689 4.016-8.394 8.686-7.971 47.987 4.351 95.242-7.767 134.923-34.499 4.513-3.04 10.727-.788 12.152 4.464 4.936 18.194 18.399 28.397 34.667 29.324z" fill="#ffebd2"/>
        <path d="m351.101 341.76-8.86 7.05c-9.39-4.26-19.82-6.64-30.81-6.64-22.829 0-41.43-18.435-41.43-41.34v-6.83l-.15-.37c35.9-14.86 61.15-50.23 61.15-91.5v-47.886c0-4.254-3.325-7.744-7.572-7.986-16.168-.921-29.699-11.013-34.667-29.323-1.425-5.252-7.639-7.504-12.152-4.464-39.655 26.714-86.907 38.852-134.923 34.499-4.67-.423-8.686 3.282-8.686 7.971v47.19c0 41.27 25.25 76.64 61.15 91.5l-.15.37v6.83c0 22.901-18.596 41.34-41.43 41.34-10.99 0-21.42 2.38-30.81 6.64l-8.86-7.05c-43.011-34.272-52.588-95.695-22.16-141.39 11.26-16.9 17.26-36.74 17.26-57.04v-43.331c0-55.228 44.772-100 100-100h48c55.228 0 100 44.772 100 100v43.33c0 20.276 6 40.14 17.26 57.04 30.539 45.862 20.688 107.278-22.16 141.39z" fill="#42434d"/>
        <path d="m271.131 310.42c-24.637 10.313-51.712 11.113-78.26 0 1.356-5.626 1.13-9.27 1.13-16.42l.15-.37c24.082 9.996 51.571 10.016 75.7 0l.15.37c0 7.153-.226 10.796 1.13 16.42z" fill="#ffd6a6"/>
        <path d="m301.176 10.762c10.212 5.18 5.774 20.767-5.626 19.688-3.143-.298-6.329-.45-9.55-.45h-48c-55.228 0-100 44.772-100 100v12.168c0 7.184-5 6.952-5 12.772 0 52.822.214 49.478-.561 51.757-7.845 23.078-17.266 26.418-24.909 51.673-4.163 13.756-5.393 27.922-3.951 41.669 1.177 11.22-14.446 16.587-20.079 4.901-16.149-33.457-13.62-73.243 7.24-104.57 11.26-16.9 17.26-36.74 17.26-57.04v-43.33c0-55.228 44.772-100 100-100h48c16.257 0 31.607 3.879 45.176 10.762z" fill="#4d4e59"/>
        <path d="m213.022 268.449c14.939 10 3.553 33.13-13.41 27.177-37.286-13.084-66.611-47.883-66.611-93.497v-47.19c0-4.69 4.02-8.39 8.69-7.97 3.832.348 8.04.622 12.581.761 8.219.25 14.729 7.037 14.729 15.26v23.14c0 34.826 17.756 64.738 44.021 82.319z" fill="#fff3e4"/>
        <path d="m186.494 351.769c4.746 3.674 2.238 11.378-3.764 11.401-42.333.158-74.729 34.149-74.729 74.57v26.26h-22c-4.418 0-8-3.582-8-8v-39.26c0-41.163 33.37-74.57 74.57-74.57 6.13 0 11.95-1.33 17.18-3.71l.25.54z" fill="#ffbd7b"/>
        <path d="m277.507 351.769c-4.746 3.674-2.238 11.378 3.764 11.401 42.333.158 74.729 34.149 74.729 74.57v26.26h22c4.418 0 8-3.582 8-8v-39.26c0-41.163-33.37-74.57-74.57-74.57-6.13 0-11.95-1.33-17.18-3.71l-.25.54z" fill="#faa157"/>
    </symbol>
    <symbol id="profile" viewBox="0 0 512 512">
        <title>profile</title>
        <g>
            <path d="m256.025 483.334 101.429-25.614c57.895-48.074 94.771-120.586 94.771-201.719 0-125.144-87.711-229.801-205.012-255.852-137.316 4.631-247.213 117.407-247.213 255.851 0 71.112 29 135.446 75.812 181.836z" fill="#cbe2ff"/>
        </g>
        <g>
            <path d="m446.914 256c0 83.915-40.381 158.391-102.765 205.079l92.031-23.241c46.815-46.39 75.82-110.724 75.82-181.838 0-141.385-114.615-256-256-256-11.024 0-21.886.698-32.543 2.05 126.019 15.988 223.457 123.59 223.457 253.95z" fill="#bed8fb"/>
        </g>
        <g>
            <g>
                <g>
                    <path d="m319.621 96.952c0-13.075-10.599-23.674-23.674-23.674h-81.582c-30.091 0-54.485 24.394-54.485 54.485v60.493h192.209v-59.635c0-13.075-10.599-23.674-23.674-23.674h-.798c-4.416 0-7.996-3.579-7.996-7.995z" fill="#365e7d"/>
                    <path d="m328.415 104.947h-.798c-4.416 0-7.996-3.58-7.996-7.996 0-13.075-10.599-23.674-23.674-23.674h-8.945v114.978h65.086v-59.635c.001-13.073-10.599-23.673-23.673-23.673z" fill="#2b4d66"/>
                    <path d="m425.045 372.355c-6.259-6.182-14.001-10.963-22.79-13.745l-69.891-22.128-76.348-2.683-76.38 2.683-69.891 22.128c-23.644 7.486-39.713 29.428-39.713 54.229v19.094c44.789 47.328 107.451 77.568 177.183 79.92 78.128-17.353 143.129-69.576 177.83-139.498z" fill="#4a80aa"/>
                    <path d="m441.968 431.932v-19.094c0-17.536-8.04-33.635-21.105-44.213-37.111 75.626-110.422 130.268-197.346 141.317 10.492 1.329 21.178 2.038 32.026 2.057 10.423-.016 20.708-.62 30.824-1.782 61.031-7.212 115.485-35.894 155.601-78.285z" fill="#407093"/>
                    <path d="m261.796 508.168c15.489-30.751 55.822-118.067 44.321-172.609l-50.101-19.499-50.148 19.5c-11.856 56.225 31.37 147.277 45.681 175.29 3.442-.826 6.859-1.721 10.247-2.682z" fill="#e4f6ff"/>
                    <path d="m288.197 483.789-20.314-79.917h-23.767l-20.264 79.699 25.058 27.897c6.361-1.457 12.634-3.146 18.81-5.057z" fill="#e28086"/>
                    <path d="m249.302 511.905c2.075.054 4.154.091 6.241.095 2.415-.004 4.822-.046 7.222-.113l12.907-14.259c-10.159 3.564-20.61 6.506-31.309 8.779z" fill="#dd636e"/>
                    <g>
                        <g>
                            <g>
                                <g>
                                    <g>
                                        <g>
                                            <g>
                                                <g>
                                                    <path d="m298.774 328.183v-45.066h-85.58v45.066c0 23.632 42.79 49.446 42.79 49.446s42.79-25.814 42.79-49.446z" fill="#ffddce"/>
                                                </g>
                                            </g>
                                        </g>
                                    </g>
                                </g>
                            </g>
                        </g>
                        <path d="m352.089 180.318h-16.359c-9.098 0-16.473-7.375-16.473-16.473v-9.015c0-11.851-11.595-20.23-22.847-16.511-26.243 8.674-54.579 8.676-80.823.006l-.031-.01c-11.252-3.717-22.845 4.662-22.845 16.512v9.019c0 9.098-7.375 16.473-16.473 16.473h-16.358v26.938c0 6.883 5.58 12.464 12.464 12.464 2.172 0 3.939 1.701 4.076 3.869 2.628 41.668 37.235 74.654 79.565 74.654 42.33 0 76.937-32.986 79.565-74.654.137-2.167 1.904-3.869 4.076-3.869 6.883 0 12.464-5.58 12.464-12.464v-26.939z" fill="#ffddce"/>
                        <path d="m335.73 180.318c-9.098 0-16.473-7.375-16.473-16.473v-9.015c0-11.851-11.595-20.23-22.847-16.511-3.108 1.027-6.247 1.923-9.407 2.707v88.972c-.438 28.948-16.3 54.142-39.725 67.758 2.861.311 5.763.486 8.706.486 42.33 0 76.937-32.986 79.565-74.654.137-2.167 1.904-3.869 4.076-3.869 6.883 0 12.464-5.58 12.464-12.464v-26.938h-16.359z" fill="#ffcbbe"/>
                    </g>
                    <g fill="#f4fbff">
                        <path d="m213.194 316.06-33.558 27.267 35.192 43.513c4.281 4.168 11.019 4.424 15.605.594l26.465-22.107z"/>
                        <path d="m298.79 316.06-41.892 49.267 24.874 21.268c4.557 3.896 11.327 3.7 15.651-.453l34.94-42.815z"/>
                    </g>
                </g>
                <path d="m213.194 316.06-49.256 24.199c-3.75 1.842-5.256 6.404-3.341 10.117l9.65 18.71c2.501 4.848 1.578 10.756-2.282 14.61-1.987 1.983-4.139 4.131-6.004 5.993-3.338 3.332-4.537 8.255-3.067 12.737 11.651 35.517 67.725 89.828 88.946 109.478 1.427.038 2.857.064 4.29.08-15.389-29.933-69.922-143.655-38.936-195.924z" fill="#365e7d"/>
                <path d="m344.019 383.695c-3.861-3.854-4.783-9.762-2.282-14.61l9.65-18.71c1.915-3.713.409-8.275-3.341-10.117l-49.256-24.198c30.978 52.255-23.517 165.929-38.923 195.9 1.448-.025 2.893-.061 4.335-.109 21.265-19.695 77.248-73.94 88.888-109.424 1.47-4.482.271-9.405-3.067-12.737-1.865-1.863-4.017-4.012-6.004-5.995z" fill="#365e7d"/>
                <path d="m256.898 365.327-26.06 21.764 13.278 16.781h23.767l13.279-17.771z" fill="#dd636e"/>
            </g>
        </g>
    </symbol>
    <symbol id="grow-plant" viewBox="0 0 512 512">
        <title>grow-plant</title>
        <path style="fill:#00C063;" d="M445.759,0.757c-87.255,0-158.241,70.987-158.241,158.24v16.281h16.281 c87.255,0,158.241-70.987,158.241-158.24V0.757H445.759z"/>
        <path style="fill:#009A43;" d="M287.518,175.28h16.281c87.255,0,158.241-70.987,158.241-158.24V0.757L287.518,175.28z"/>
        <path style="fill:#00C063;" d="M159.276,52.457h-16.28v16.281c0,87.255,70.987,158.241,158.24,158.241h16.281v-16.281 C317.518,123.445,246.531,52.457,159.276,52.457z"/>
        <path style="fill:#009A43;" d="M159.276,52.457h-16.28L317.518,226.98v-16.281C317.518,123.445,246.531,52.457,159.276,52.457z"/>
        <path style="fill:#AE4B00;" d="M435.262,336.843c-25.724-28.687-68.777-76.7-122.751-81.185 c-82.85-6.884-137.142,40.91-139.414,42.947l10.017,11.166l0,0h0.001l10.016,11.165c0.093-0.083,2.061-1.816,5.718-4.478 l57.143,24.287l53.943,24.438l9.153,44.21l102.761-42.71c1.593,1.697,3.084,3.233,4.469,4.576l20.878-21.542 C444.228,346.843,440.074,342.208,435.262,336.843z"/>
        <path style="fill:#803400;" d="M435.262,336.843c-25.724-28.687-68.777-76.7-122.751-81.185c-3.381-0.281-6.71-0.462-9.994-0.568 v106.732l7.416,3.36l9.153,44.21l102.761-42.71c1.593,1.697,3.084,3.233,4.469,4.576l20.878-21.542 C444.228,346.843,440.074,342.208,435.262,336.843z"/>
        <path style="fill:#F9D5A5;" d="M508.117,369.113c-5.162-12.42-14.851-22.086-27.283-27.218s-26.117-5.116-38.539,0.046 L331.89,387.826c0.104-6.695-1.128-13.415-3.714-19.844c-5.25-13.05-15.33-23.114-28.386-28.339l-101.775-40.739 c-22.535-9.027-47.302-8.865-69.74,0.457l-50.517,20.995l5.757,13.852l0.081,5.425l-0.081,0.055l0.857,84.138l-5.619,13.909 l165.115,66.694c11.279,4.544,23.107,6.815,34.932,6.815c12.162,0,24.318-2.401,35.867-7.201l166.277-69.107 c12.42-5.162,22.086-14.851,27.218-27.283C513.295,395.22,513.279,381.534,508.117,369.113z"/>
        <g>
            <path style="fill:#F9BE77;" d="M506.878,366.384c-5.373,11.065-14.476,19.684-25.933,24.446l-166.277,69.107 c-11.549,4.8-23.705,7.201-35.867,7.201c-11.825,0-23.653-2.271-34.932-6.814l-159.783-64.54l0.285,28.042l-5.619,13.909 l165.115,66.694c11.279,4.544,23.107,6.815,34.932,6.815c12.162,0,24.318-2.401,35.867-7.201l166.277-69.107 c12.42-5.162,22.086-14.851,27.218-27.283c5.133-12.433,5.116-26.118-0.046-38.539C507.732,368.186,507.313,367.28,506.878,366.384 z"/>
            <polygon style="fill:#F9BE77;" points="83.934,380.806 84.371,379.721 83.906,334.045 83.515,334.208 83.596,339.634 83.515,339.688 "/>
        </g>
        <rect y="279.99" style="fill:#FF3100;" width="98.517" height="201.283"/>
        <rect x="69.518" y="258.851" style="fill:#FFFFFF;" width="29.999" height="233.652"/>
        <rect y="387.406" style="fill:#C81C00;" width="98.517" height="93.877"/>
        <rect x="69.518" y="387.406" style="fill:#DBDBDD;" width="29.999" height="105.096"/>
        <polygon style="fill:#FF9A00;" points="402.101,77.822 380.417,57.092 287.519,154.502 287.519,174.586 224.62,108.793 202.935,129.524 287.519,217.998 287.519,269.963 317.518,269.963 317.518,166.295 "/>
        <polygon style="fill:#D86100;" points="380.417,57.092 302.518,138.774 302.518,269.963 317.518,269.963 317.518,166.295 402.101,77.822 "/>
    </symbol>
    <symbol id="plant-pot" viewBox="0 0 512 512">
        <title>plant-pot</title>
        <g>
            <g>
                <g>
                    <g>
                        <path d="m122.607 104.83c-4.825-4.751-13.26-1.705-13.57 4.921-1.967 42.02 2.629 151.661 96.735 204.628 55.762 31.385 54.323-2.144 54.323-2.144l-3.227-75.194z" fill="#c6e873"/>
                    </g>
                    <g>
                        <path d="m389.393 104.83c4.825-4.751 13.26-1.705 13.57 4.921 1.967 42.02-2.629 151.661-96.735 204.628-55.762 31.385-54.323-2.144-54.323-2.144l3.227-75.194z" fill="#c6e873"/>
                    </g>
                </g>
                <g>
                    <path d="m262.663 11.78c-2.457-5.706-10.869-5.706-13.326 0-14.203 32.984-46.171 114.616-46.171 181.134 0 85.514 52.835 138.08 52.835 138.08s52.835-52.566 52.835-138.08c-.001-66.518-31.97-148.15-46.173-181.134z" fill="#b5e245"/>
                </g>
            </g>
            <g>
                <path d="m105.93 316.911 39.428 169.077c2.528 10.842 12.193 18.512 23.325 18.512h174.633c11.132 0 20.797-7.67 23.325-18.512l39.428-169.077z" fill="#eaaa89"/>
                <path d="m340.408 316.911-39.428 169.077c-2.528 10.842-12.193 18.512-23.325 18.512h65.661c11.132 0 20.797-7.67 23.325-18.512l39.428-169.077z" fill="#e4936b"/>
                <path d="m413.256 336.214h-314.512c-11.845 0-21.447-9.602-21.447-21.447 0-11.845 9.602-21.447 21.447-21.447h314.512c11.845 0 21.447 9.602 21.447 21.447 0 11.845-9.602 21.447-21.447 21.447z" fill="#e4936b"/>
                <path d="m413.256 293.32h-65.963c11.845 0 21.447 9.602 21.447 21.447 0 11.845-9.602 21.447-21.447 21.447h65.963c11.845 0 21.447-9.602 21.447-21.447 0-11.845-9.602-21.447-21.447-21.447z" fill="#e27d47"/>
            </g>
        </g>
        <path d="m413.256 285.82h-58.714c54.809-59.136 57.531-141.835 55.913-176.419-.279-5.974-3.976-11.063-9.646-13.284-5.762-2.259-12.308-.935-16.678 3.369l-54.246 53.418c-2.951 2.906-2.987 7.654-.081 10.606 2.906 2.95 7.654 2.986 10.606.081l54.245-53.418c.092-.09.175-.172.382-.151.187.004.351.073.437.129 1.618 34.703-1.317 120.58-62.256 175.669h-38.16c.658-1.377 1.291-2.764 1.919-4.153 14.724-14.862 42.389-45.279 60.713-80.668 1.904-3.678.467-8.204-3.212-10.108-3.677-1.905-8.203-.469-10.108 3.212-9.812 18.95-22.708 36.641-34.595 51.001 4.324-17.102 6.56-34.646 6.56-52.189 0-68.102-32.716-151.434-46.782-184.101-2.307-5.355-7.626-8.814-13.553-8.814s-11.246 3.459-13.552 8.813c-14.066 32.667-46.783 116.001-46.783 184.101 0 17.542 2.237 35.087 6.56 52.189-11.886-14.36-24.782-32.05-34.595-51-1.905-3.679-6.433-5.115-10.108-3.212-3.679 1.904-5.116 6.431-3.212 10.108 18.324 35.389 45.99 65.806 60.713 80.668.628 1.389 1.261 2.776 1.919 4.153h-38.161c-60.924-55.075-63.872-140.922-62.255-175.67.087-.056.25-.124.436-.128.189-.023.29.062.381.151l54.325 53.495c2.95 2.905 7.699 2.87 10.606-.081 2.906-2.952 2.87-7.7-.081-10.606l-54.326-53.495c-4.369-4.303-10.917-5.627-16.677-3.369-5.671 2.221-9.367 7.311-9.646 13.283-1.618 34.585 1.104 117.285 55.913 176.42h-58.713c-15.962 0-28.947 12.985-28.947 28.946 0 15.962 12.985 28.947 28.947 28.947h5.736l33.575 143.978c3.337 14.313 15.932 24.309 30.629 24.309h174.633c14.696 0 27.292-9.996 30.629-24.309l33.575-143.978h5.736c15.962 0 28.947-12.985 28.947-28.947-.001-15.96-12.986-28.946-28.948-28.946zm-157.256-270.55c13.818 32.171 45.334 112.688 45.334 177.645 0 39.701-12.065 71.873-23.027 92.906h-14.807v-145.833c0-4.143-3.357-7.5-7.5-7.5s-7.5 3.357-7.5 7.5v145.832h-14.807c-10.962-21.034-23.028-53.206-23.028-92.906 0-64.953 31.516-145.474 45.335-177.644zm157.256 313.444h-234.755c-4.143 0-7.5 3.357-7.5 7.5s3.357 7.5 7.5 7.5h213.618l-32.781 140.571c-1.746 7.486-8.334 12.715-16.021 12.715h-174.633c-7.688 0-14.275-5.229-16.021-12.715l-32.781-140.571h23.56c4.143 0 7.5-3.357 7.5-7.5s-3.357-7.5-7.5-7.5h-44.698c-7.69 0-13.947-6.257-13.947-13.947s6.257-13.946 13.947-13.946h314.512c7.69 0 13.947 6.256 13.947 13.946s-6.257 13.947-13.947 13.947z"/>
    </symbol>
    <symbol id="fern" viewBox="0 0 512 512">
        <title>fern</title>
        <path d="m512 256c0 141.385-114.615 256-256 256-50.899 0-98.328-14.854-138.189-40.464-2.209-1.419-1.274-5.364-3.436-6.849-2.173-1.492-7.442-.524-9.565-2.081-63.549-46.581-104.81-121.775-104.81-206.606 0-29.024 4.83-56.92 13.73-82.928 11.03-32.232 39.689-49.753 61.774-74.738 20.596-23.301 33.994-54.631 61.774-69.199 14.015-7.349 28.795-13.438 44.189-18.115.756-.23 3.898 4.891 4.656 4.669 5.196-1.526 10.461-2.891 15.788-4.091.866-.195-.652-5.733.217-5.919 7.308-1.565 14.732-2.818 22.257-3.745 1.996-.246 5.604 3.579 7.614 3.38 8.422-.836 34.176-1.299 38.688-1.063 1.592.084 2.119-3.712 3.704-3.6 132.801 9.427 237.609 120.148 237.609 255.349z" fill="#495959"/>
        <path d="m98.499 171.383c-15.583 15.087-28.321 34.317-36.471 56.74-8.15 22.422-10.732 45.344-8.472 66.916.463 4.425 5.814 6.37 9.011 3.275 15.583-15.087 28.321-34.317 36.471-56.74s10.732-45.344 8.472-66.916c-.464-4.425-5.815-6.37-9.011-3.275zm365.134 29.077c-15.583 15.087-28.321 34.317-36.471 56.74-8.149 22.422-10.732 45.344-8.472 66.916.463 4.425 5.814 6.37 9.011 3.275 15.583-15.087 28.321-34.317 36.471-56.74s10.732-45.344 8.472-66.916c-.464-4.425-5.815-6.37-9.011-3.275zm-119.247-110.972c-21.585 2.125-43.519 9.265-63.844 21.758s-36.601 28.839-48.245 47.138c-2.388 3.753.593 8.604 5.02 8.168 21.585-2.125 43.519-9.265 63.844-21.758s36.601-28.839 48.245-47.138c2.388-3.753-.593-8.604-5.02-8.168z" fill="#607882"/>
        <path d="m474.812 102.282c6.339-2.526 12.796 3.354 10.873 9.902-9.376 31.92-26.409 62.931-51.049 89.987-24.639 27.056-53.927 46.907-84.833 59.22-6.339 2.526-12.796-3.354-10.873-9.902 9.376-31.92 26.409-62.931 51.049-89.987 24.639-27.056 53.926-46.908 84.833-59.22zm-275.127 179.805c18.557 20.684 40.331 36.239 63.112 46.318 4.673 2.067 9.238-2.029 7.688-6.897-7.557-23.737-20.667-47.066-39.223-67.749s-40.331-36.239-63.112-46.318c-4.673-2.067-9.238 2.029-7.688 6.897 7.557 23.737 20.666 47.065 39.223 67.749zm32.873-50.921c15.037 27.192 34.825 49.624 57.051 66.358 4.559 3.432 10.517.138 10.033-5.548-2.358-27.721-10.839-56.406-25.876-83.598s-34.825-49.624-57.051-66.358c-4.559-3.432-10.517-.138-10.033 5.548 2.359 27.721 10.839 56.406 25.876 83.598zm63.505-32.754c-1.442 28.493 3.655 55.602 13.812 79.467 2.083 4.895 8.883 5.239 11.45.58 12.516-22.718 20.324-49.173 21.767-77.666 1.442-28.493-3.655-55.602-13.812-79.467-2.083-4.895-8.883-5.239-11.45-.58-12.516 22.717-20.325 49.173-21.767 77.666zm-132.085 125.25c20.324 17.633 42.963 30.133 65.787 37.388 4.682 1.488 8.407-2.806 6.273-7.231-10.402-21.573-25.971-42.222-46.295-59.855s-42.963-30.133-65.787-37.388c-4.682-1.488-8.407 2.806-6.273 7.231 10.403 21.573 25.971 42.222 46.295 59.855zm-20.704 41.811c17.367 11.363 35.979 18.547 54.197 21.69 3.737.645 6.149-3.042 4.062-6.207-10.175-15.435-24.21-29.614-41.576-40.978s-35.979-18.547-54.197-21.69c-3.737-.645-6.149 3.042-4.062 6.207 10.174 15.436 24.209 29.615 41.576 40.978zm-11.458 46.859c17.892.419 34.793-2.736 49.565-8.628 3.03-1.209 3.118-4.948.148-6.298-14.48-6.578-31.214-10.521-49.106-10.94s-34.793 2.736-49.565 8.628c-3.03 1.209-3.118 4.948-.148 6.298 14.479 6.577 31.214 10.52 49.106 10.94zm247.235 30.854c4.739 1.808 9.099-2.505 7.343-7.263-8.562-23.198-22.63-45.696-41.998-65.276-19.368-19.581-41.712-33.892-64.815-42.707-4.739-1.808-9.099 2.505-7.343 7.263 8.562 23.198 22.63 45.696 41.998 65.276 19.368 19.581 41.712 33.892 64.815 42.707zm69.374-42.189c5.659.829 9.303-4.922 6.136-9.685-15.441-23.221-36.723-44.354-63.044-61.031s-54.519-26.895-82.111-30.938c-5.659-.829-9.303 4.922-6.136 9.685 15.441 23.221 36.723 44.354 63.044 61.031 26.321 16.676 54.519 26.894 82.111 30.938zm32.017-107.769c4.804-2.285 4.866-9.093.104-11.464-23.218-11.561-49.975-18.264-78.503-18.522s-55.402 5.961-78.825 17.101c-4.804 2.285-4.866 9.093-.104 11.465 23.218 11.561 49.975 18.264 78.503 18.522 28.529.257 55.402-5.961 78.825-17.102zm-153.303 189.743c4.237 2.325 8.745-1.138 7.591-5.831-5.626-22.883-16.46-45.842-32.537-66.772s-35.467-37.317-56.126-48.652c-4.237-2.325-8.745 1.138-7.591 5.831 5.626 22.883 16.46 45.842 32.537 66.772 16.077 20.929 35.467 37.316 56.126 48.652zm-61.577 12.284c3.041 2.28 6.864.092 6.438-3.685-2.076-18.414-8.165-37.469-18.502-55.533-10.338-18.063-23.683-32.966-38.508-44.083-3.041-2.28-6.864-.092-6.438 3.685 2.076 18.414 8.165 37.469 18.502 55.533 10.338 18.063 23.683 32.966 38.508 44.083zm-77.883 14.277c1.165 3.182 4.903 3.317 6.295.228 6.786-15.061 10.97-32.51 11.647-51.21s-2.234-36.406-7.914-51.918c-1.165-3.182-4.903-3.317-6.295-.228-6.786 15.061-10.97 32.51-11.647 51.21-.677 18.701 2.235 36.406 7.914 51.918z" fill="#9bcf1b"/>
        <path d="m83.539 120.499c-20.609 22.63-44.469 40.219-69.809 52.573 21.316-62.29 65.979-113.749 123.549-143.937-1.112 1.173-29.654 64.916-53.74 91.364zm65.57-90.564c-12.516 22.718-20.324 49.173-21.767 77.666-1.442 28.493 3.655 55.602 13.813 79.467 2.083 4.895 8.883 5.24 11.45.58 12.516-22.718 20.324-49.173 21.767-77.666s-3.655-55.602-13.813-79.467c-2.083-4.895-8.883-5.24-11.45-.58zm164.123 37.922c-6.419-22.467-18.219-44.336-35.382-63.467-1.138-1.269-2.292-2.515-3.458-3.739-6.075-.432-12.208-.651-18.392-.651-10.704 0-21.255.657-31.614 1.933 5.928 10.776 13.224 21.13 21.887 30.786 17.163 19.131 37.629 33.226 59.271 42.036 4.439 1.807 9.004-2.289 7.688-6.898zm-68.724-10.607c-11.302-20.437-25.837-37.773-42.378-51.572-6.998 1.499-13.889 3.283-20.662 5.341 2.365 23.204 9.521 46.759 21.832 69.019 13.806 24.966 32.438 45.307 53.657 60.222 4.353 3.059 10.31-.235 10.033-5.548-1.352-25.902-8.676-52.496-22.482-77.462z" fill="#84b017"/>
        <path d="m261.059 46.97c-9.973-9.279-7.71-25.558 4.339-31.914.128-.068.256-.135.385-.203 8.731-4.587 19.587-1.948 25.195 6.165 10.213 14.775 17.636 30.662 22.261 46.861 1.314 4.604-3.258 8.681-7.693 6.876-13.268-5.401-26.093-12.788-37.987-22.104-1.783-1.396-4.056-3.407-6.5-5.681zm-170.984 65.624c-2.199 2.885-4.385 5.544-6.536 7.905-20.609 22.63-44.469 40.219-69.809 52.573 10.568-30.882 26.874-59.101 47.647-83.386 15.458-18.072 43.113 3.995 28.698 22.908zm113.225-32.556c13.807 24.967 32.438 45.307 53.658 60.223 4.33 3.044 10.308-.262 10.032-5.548-1.352-25.902-8.676-52.496-22.482-77.463-.69-1.248-1.392-2.484-2.106-3.709-5.598-9.603-17.24-13.788-27.754-10.182-.139.048-.277.095-.416.143-13.367 4.61-19.58 20.101-13.031 32.633.682 1.305 1.382 2.606 2.099 3.903zm-75.958 27.564c-1.442 28.493 3.655 55.603 13.813 79.468 2.073 4.87 8.895 5.215 11.45.58 12.516-22.718 20.324-49.174 21.767-77.667.043-.84.079-1.68.111-2.518.498-13.364-10.135-24.496-23.508-24.496-12.442 0-22.691 9.69-23.487 22.107-.055.84-.103 1.682-.146 2.526z" fill="#9bcf1b"/>
        <path d="m227.344 279.417c-8.522 8.522-22.443 8.143-30.509-.811-1.831-2.032-3.253-3.65-3.853-4.395-15.045-18.647-25.909-39.104-32.521-59.875-1.477-4.639 3.239-8.864 7.691-6.895 20.23 8.951 39.667 22.22 56.76 39.564.566.574 1.739 1.854 3.218 3.502 7.457 8.313 7.11 21.014-.786 28.91zm-40.146 40.146c7.987-7.987 7.554-21.075-.959-28.497-.929-.81-1.627-1.407-1.974-1.687-18.872-15.228-39.508-26.189-60.298-32.799-4.348-1.382-8.266 3.116-6.284 7.226 9.045 18.758 21.996 36.818 38.583 52.804.738.711 2.328 2.133 4.295 3.854 7.727 6.758 19.377 6.358 26.637-.901zm-39.478 13.23c-.714-.398-1.359-.746-1.908-1.026-13.154-6.712-26.744-11.191-40.12-13.491-3.473-.597-5.934 3.276-3.995 6.218 6.654 10.095 14.96 19.652 24.769 28.236 1.666 1.458 3.375 2.887 5.126 4.287 5.765 4.606 14.103 4.048 19.321-1.17 6.841-6.841 5.259-18.345-3.193-23.054zm172.988-130.448c1.331-.22 2.667-.397 4.008-.531 10.609-1.055 18.669-9.96 18.299-20.615-.043-1.242-.099-2.383-.171-3.367-1.466-20.097-6.186-39.192-13.588-56.566-2.082-4.886-8.863-5.173-11.426-.522-9.698 17.603-16.57 37.451-19.844 58.752-.01.062-.019.125-.029.19-1.952 13.264 9.527 24.85 22.751 22.659zm-88.15 28.821c.097.176.195.352.293.528 7.573 13.607 26.136 16.079 37.148 5.068 7.369-7.369 9.072-18.735 4.052-27.868-.095-.172-.19-.345-.285-.517-15.037-27.192-34.826-49.624-57.052-66.359-4.318-3.251-10.49.163-10.032 5.548 2.359 27.722 10.839 56.408 25.876 83.6zm-137.536 159.837c-4.191 1.161-8.253 2.53-12.167 4.091-2.786 1.111-2.878 5.056-.147 6.296 3.837 1.743 7.832 3.301 11.964 4.657 2.799.918 5.881.159 7.964-1.923 5.688-5.687.138-15.269-7.614-13.121zm379.728-288.697c-30.884 12.315-60.148 32.157-84.771 59.195-7.14 7.84-13.641 16.011-19.502 24.441-7.623 10.965-6.564 25.792 2.662 35.447.135.141.269.282.403.423 10.203 10.741 27.036 11.77 38.368 2.229 7.922-6.669 15.522-13.963 22.725-21.872 24.64-27.056 41.673-58.067 51.049-89.988 1.923-6.542-4.599-12.401-10.934-9.875zm-288.102 392.752c-1.664 1.664-2.281 4.106-1.625 6.365.802 2.763 1.689 5.468 2.656 8.109 1.042 2.847 5.049 2.993 6.295.229 1.155-2.563 2.234-5.194 3.234-7.89 2.404-6.483-5.669-11.703-10.56-6.813zm204.869-164.777c-3.364-2.131-6.758-4.156-10.177-6.077-9.052-5.084-20.397-3.44-27.738 3.901-10.123 10.123-8.864 27.002 2.803 35.299 3.219 2.289 6.522 4.509 9.91 6.655 26.321 16.677 54.52 26.895 82.112 30.938 5.351.784 9.13-5.18 6.136-9.684-15.442-23.221-36.725-44.355-63.046-61.032zm89.03-48.517c-16.002-7.969-33.686-13.629-52.472-16.462-3.704-.559-10.339-1.019-16.891-1.349-9.661-.487-18.478 5.348-21.918 14.388-.075.198-.151.396-.228.594-5.694 14.654 4.917 30.496 20.638 30.471 7.726-.012 14.417-.202 17.441-.593 19.042-2.461 37.019-7.83 53.323-15.584 4.785-2.275 4.85-9.103.107-11.465zm-136.151 88.882c-.576-.583-1.155-1.16-1.737-1.734-8.314-8.197-21.665-8.2-29.92.055-8.193 8.193-8.26 21.418-.216 29.757.566.587 1.137 1.172 1.713 1.754 19.369 19.581 41.713 33.893 64.816 42.707 4.559 1.74 9.031-2.684 7.342-7.262-8.562-23.197-22.629-45.696-41.998-65.277zm-42.203 39.722c-.062-.081-.124-.161-.186-.242-7.033-9.126-20.545-9.88-28.692-1.733l-.652.652c-6.77 6.77-7.58 17.54-1.754 25.138.035.046.07.091.104.136 16.078 20.93 35.468 37.318 56.127 48.653 3.997 2.193 8.679-1.403 7.59-5.831-5.625-22.883-16.459-45.843-32.537-66.773zm-40.359 42.56c-.446-1.066-1.085-2.441-1.836-3.982-4.368-8.969-16.285-10.952-23.339-3.897-5.044 5.044-5.642 12.975-1.509 18.79 1.657 2.331 3.367 4.596 5.125 6.792 7.634 9.538 16.179 17.793 25.283 24.621 2.815 2.111 6.838-.184 6.443-3.681-1.438-12.755-4.801-25.816-10.167-38.643z" fill="#b9e746"/>
        <path d="m352.793 257.18c-76.662 81.51-156.367 154.219-234.985 214.354-4.434-2.849-8.774-5.83-13.015-8.939 79.224-60.201 159.674-133.398 237.043-215.658 2.413-2.566 6.288-3.083 9.292-1.242.043.027.087.053.131.08 4.009 2.453 4.754 7.981 1.534 11.405z" fill="#84b017"/>
    </symbol>
    <symbol id="pot" viewBox="0 0 512 512">
        <title>pot</title>
        <path d="m305.668 138.495c-2.682-3.156-7.416-3.542-10.571-.858l-34.532 29.345c-1.882-4.98-3.255-7.792-3.514-8.309-22.006-44.983-4.674-77.436-3.857-78.916 2.022-3.602.751-8.164-2.848-10.199-3.606-2.038-8.181-.77-10.221 2.836-.919 1.626-22.227 40.42 3.508 92.983.018.036.384.78.992 2.191l-38.142-12.108c-3.946-1.25-8.164.933-9.418 4.879-1.253 3.948.932 8.165 4.879 9.418l48.831 15.501c2.47 8.618 5.077 19.922 6.917 33.708 4.244 31.786 5.164 83.616-14.551 150.027-1.18 3.971 1.084 8.146 5.055 9.324.713.212 1.431.313 2.138.313 3.234 0 6.22-2.109 7.187-5.367 20.603-69.397 19.485-123.77 14.921-157.163-1.852-13.547-4.385-24.82-6.864-33.694l39.233-33.34c3.155-2.681 3.54-7.415.857-10.571z" fill="#68ca44"/>
        <g>
            <path d="m318.995 512h-125.99c-18.982 0-34.975-14.549-37.258-33.893l-20.278-171.799h241.062l-20.278 171.799c-2.283 19.344-18.276 33.893-37.258 33.893z" fill="#e19974"/>
            <path d="m345.626 306.308-20.278 171.799c-2.283 19.344-18.277 33.893-37.258 33.893h30.906c18.981 0 34.975-14.549 37.258-33.893l20.278-171.799z" fill="#dc8758"/>
        </g>
        <ellipse cx="263.121" cy="45.274" fill="#97da7b" rx="48.576" ry="29.847" transform="matrix(.46 -.888 .888 .46 101.855 258.054)"/>
        <path d="m285.458 2.139c-7.564-3.912-17.057-2.276-26.169 3.494 10.145 10.204 10.285 32.404-.562 53.351-5.963 11.515-14.155 20.531-22.68 25.93 1.393 1.4 2.969 2.58 4.737 3.494 14.642 7.572 36.512-5.602 48.849-29.425s10.467-49.272-4.175-56.844z" fill="#80d261"/>
        <path d="m381.682 311.63h-251.364c-9.672 0-17.513-7.841-17.513-17.513 0-9.672 7.841-17.513 17.513-17.513h251.364c9.672 0 17.513 7.841 17.513 17.513 0 9.672-7.841 17.513-17.513 17.513z" fill="#dc8758"/>
        <path d="m381.682 276.604h-30.905c9.672 0 17.513 7.841 17.513 17.513 0 9.672-7.841 17.513-17.513 17.513h30.905c9.672 0 17.513-7.841 17.513-17.513 0-9.673-7.841-17.513-17.513-17.513z" fill="#d77f4a"/>
        <ellipse cx="317.703" cy="130.739" fill="#97da7b" rx="55.905" ry="34.35" transform="matrix(.78 -.626 .626 .78 -11.871 227.74)"/>
        <path d="m361.303 95.747c-7.713-9.621-22.724-11.431-38.898-6.219 3.138 1.485 5.85 3.546 7.993 6.219 11.866 14.802 1.966 42.467-22.114 61.793-8.429 6.765-17.476 11.603-26.187 14.41 14.239 6.739 37.361 1.426 57.093-14.41 24.079-19.325 33.979-46.991 22.113-61.793z" fill="#80d261"/>
        <ellipse cx="175.943" cy="155.823" fill="#97da7b" rx="34.35" ry="55.905" transform="matrix(.276 -.961 .961 .276 -22.39 281.921)"/>
        <path d="m185.396 122.799c-13.855-3.974-27.405-4.372-38.45-1.814 2.496.491 5.014 1.089 7.544 1.814 29.679 8.513 49.506 30.199 44.285 48.438-2.784 9.724-12.128 16.503-24.741 19.425 26.788 5.27 50.871-2.741 55.647-19.425 5.221-18.24-14.606-39.926-44.285-48.438z" fill="#80d261"/>
    </symbol>


    <symbol id="settings" viewBox="0 2 98 98">
        <title>settings</title>
        <style type="text/css"> .st0{fill:url(#SVGID_1_);} .st1{fill:url(#SVGID_2_);} .st2{fill:url(#SVGID_3_);} </style>
        <g>
            <linearGradient id="SVGID_1_" gradientUnits="userSpaceOnUse" x1="49" y1="85.3333" x2="49" y2="9.6659" gradientTransform="matrix(1 0 0 -1 0 104)">
                <stop offset="0" style="stop-color:#00EFD1"/>
                <stop offset="1" style="stop-color:#00ACEA"/>
            </linearGradient>
            <path class="st0" d="M88.1,49.5H76.5c-1.4-6.2-6.9-10.8-13.5-10.8s-12.1,4.6-13.5,10.8H9.9c-1.7,0-3,1.3-3,3s1.3,3,3,3h39.6 c1.4,6.2,6.9,10.8,13.5,10.8s12.1-4.6,13.5-10.8h11.6c1.7,0,3-1.3,3-3C91.1,50.8,89.8,49.5,88.1,49.5z M63,60.3 c-4.3,0-7.8-3.5-7.8-7.8s3.5-7.8,7.8-7.8s7.8,3.5,7.8,7.8S67.3,60.3,63,60.3z"/>
            <linearGradient id="SVGID_2_" gradientUnits="userSpaceOnUse" x1="49" y1="85.3333" x2="49" y2="9.6659" gradientTransform="matrix(1 0 0 -1 0 104)">
                <stop offset="0" style="stop-color:#00EFD1"/>
                <stop offset="1" style="stop-color:#00ACEA"/>
            </linearGradient>
            <path class="st1" d="M88.1,74.3H48.5c-1.4-6.2-6.9-10.8-13.5-10.8s-12.1,4.6-13.5,10.8H9.9c-1.7,0-3,1.3-3,3s1.3,3,3,3h11.6 c1.4,6.2,6.9,10.8,13.5,10.8s12.1-4.6,13.5-10.8h39.6c1.7,0,3-1.3,3-3S89.8,74.3,88.1,74.3z M35,85.1c-4.3,0-7.8-3.5-7.8-7.8 s3.5-7.8,7.8-7.8s7.8,3.5,7.8,7.8S39.3,85.1,35,85.1z"/>
            <linearGradient id="SVGID_3_" gradientUnits="userSpaceOnUse" x1="49" y1="85.3333" x2="49" y2="9.6659" gradientTransform="matrix(1 0 0 -1 0 104)">
                <stop offset="0" style="stop-color:#00EFD1"/>
                <stop offset="1" style="stop-color:#00ACEA"/>
            </linearGradient>
            <path class="st2" d="M9.9,31.7h11.6c1.4,6.2,6.9,10.8,13.5,10.8s12.1-4.6,13.5-10.8h39.6c1.7,0,3-1.3,3-3s-1.3-3-3-3H48.5 c-1.4-6.2-6.9-10.8-13.5-10.8s-12.1,4.6-13.5,10.8H9.9c-1.7,0-3,1.3-3,3S8.2,31.7,9.9,31.7z M35,20.9c4.3,0,7.8,3.5,7.8,7.8 s-3.5,7.8-7.8,7.8s-7.8-3.5-7.8-7.8S30.7,20.9,35,20.9z"/>
        </g>
    </symbol>

    <symbol id="message"
        xmlns="http://www.w3.org/2000/svg"
        xmlns:xlink="http://www.w3.org/1999/xlink" x="0px" y="0px" viewBox="0 0 512 512" style="enable-background:new 0 0 512 512;" xml:space="preserve">
        <circle style="fill:#5F98D1;" cx="256" cy="256" r="256"/>
        <path style="fill:#3A6DA1;" d="M415.813,147.466H95.558l116.019,120.806l33.48,33.9c-18.216-4.164-19.343-6.759-27.415-13.349
	c-4.234-3.457-12.414-12.852-24.838-25.54C154.023,223.682,88.217,156.484,88.217,156.484v198.822l8.265,8.265l-0.925,0.963
	L242.68,511.657c4.412,0.226,8.852,0.343,13.32,0.343c141.385,0,256-114.615,256-256c0-4.246-0.11-8.466-0.313-12.661
	L415.813,147.466z"/>
        <g>
            <polygon style="fill:#FFFFFF;" points="88.217,156.484 88.217,355.306 185.175,255.493 	"/>
            <polygon style="fill:#FFFFFF;" points="423.783,156.484 423.783,355.306 327.307,255.895 	"/>
            <path style="fill:#FFFFFF;" d="M95.558,147.466h320.255L289.948,278.524c-8.958,9.327-21.331,14.599-34.262,14.599
		s-25.304-5.272-34.262-14.599L95.558,147.466z"/>
            <path style="fill:#FFFFFF;" d="M297.209,285.496c-10.799,11.244-25.933,17.694-41.523,17.694c-15.589,0-30.724-6.448-41.522-17.693
		l-21.349-22.23L95.558,364.534h320.255l-97.256-101.267L297.209,285.496z"/>
        </g>
    </symbol>

    <symbol id="music" enable-background="new 0 0 512 512" viewBox="0 0 512 512">
        <g>
            <g>
                <path d="m205 0c-113.218 0-205 91.782-205 205s91.782 205 205 205 205-91.782 205-205-91.782-205-205-205zm0 270c-35.841 0-65-29.158-65-65s29.159-65 65-65 65 29.158 65 65-29.159 65-65 65z" fill="#0d8ebc"/>
                <g>
                    <path d="m270 205c0 35.842-29.159 65-65 65v140c113.218 0 205-91.782 205-205s-91.782-205-205-205v140c35.841 0 65 29.158 65 65z" fill="#0a617d"/>
                    <path d="m205 100c-57.897 0-105 47.103-105 105s47.103 105 105 105 105-47.103 105-105-47.103-105-105-105zm0 150c-24.813 0-45-20.187-45-45s20.187-45 45-45 45 20.187 45 45-20.187 45-45 45z" fill="#f9f9f9"/>
                    <path d="m205 160c24.813 0 45 20.187 45 45s-20.187 45-45 45v60c57.897 0 105-47.103 105-105s-47.103-105-105-105z" fill="#d5d3ea"/>
                </g>
            </g>
            <path d="m506.231 235.177c-3.641-2.843-8.389-3.85-12.869-2.729l-160 40c-6.677 1.669-11.362 7.669-11.362 14.552v146.266c-3.197-.826-6.548-1.266-10-1.266-22.056 0-40 17.944-40 40s17.944 40 40 40 40-17.944 40-40v-123.289l130-32.5v97.055c-3.197-.826-6.548-1.266-10-1.266-22.056 0-40 17.944-40 40s17.944 40 40 40 40-17.944 40-40v-205c0-4.619-2.128-8.98-5.769-11.823z" fill="#ff6b6b"/>
            <g>
                <path d="m506.231 235.177c-3.641-2.843-8.389-3.85-12.869-2.729l-80 20v80.922l68.638-17.159v97.055c-3.197-.826-6.548-1.266-10-1.266-22.056 0-40 17.944-40 40s17.944 40 40 40 40-17.944 40-40v-205c0-4.619-2.128-8.98-5.769-11.823z" fill="#ec3d93"/>
            </g>
        </g>

    </symbol>

    <symbol id="news" viewBox="0 0 512 512"  >
        <g>
            <path d="m152 256a104 104 0 1 0 104-104 104 104 0 0 0 -104 104zm104-72a72 72 0 1 1 -72 72 72.006 72.006 0 0 1 72-72z" fill="#ffff"/>
            <g fill="#062a7e">
                <path d="m256 144a112 112 0 1 0 112 112 112.127 112.127 0 0 0 -112-112zm0 208a96 96 0 1 1 96-96 96.108 96.108 0 0 1 -96 96z"/>
                <path d="m256 176a80 80 0 1 0 80 80 80.091 80.091 0 0 0 -80-80zm0 144a64 64 0 1 1 64-64 64.072 64.072 0 0 1 -64 64z"/>
                <path d="m502.277 251.04c-1.121-1.418-27.958-35.143-71.64-69.34-25.734-20.145-51.967-36.215-77.971-47.762-32.783-14.557-65.307-21.938-96.666-21.938s-63.883 7.381-96.666 21.938c-26 11.547-52.237 27.617-77.971 47.762-43.682 34.2-70.519 67.922-71.64 69.34a8 8 0 0 0 0 9.92c1.121 1.418 27.958 35.143 71.64 69.34 25.734 20.145 51.967 36.215 77.971 47.762 32.783 14.557 65.307 21.938 96.666 21.938s63.883-7.381 96.666-21.938c26-11.547 52.237-27.617 77.971-47.762 43.682-34.2 70.519-67.922 71.64-69.34a8 8 0 0 0 0-9.92zm-81.5 66.66c-38.638 30.246-98.587 66.3-164.777 66.3-66.066 0-125.909-35.928-164.478-66.067a470.38 470.38 0 0 1 -65.11-61.933 469.323 469.323 0 0 1 64.814-61.7c38.635-30.246 98.584-66.3 164.774-66.3 66.066 0 125.909 35.928 164.478 66.067a470.488 470.488 0 0 1 65.11 61.933 469.4 469.4 0 0 1 -64.814 61.7z"/>
            </g>
        </g>
    </symbol>
</svg>