<svg xmlns="http://www.w3.org/2000/svg">

    <symbol id="woman" viewBox="0 0 464 464">
        <title>woman</title>
        <path d="m386.001 416.74v39.26c0 4.42-3.58 8-8 8h-292c-4.42 0-8-3.58-8-8v-39.26c0-30.19 17.95-56.2 43.76-67.93-10.531-8.379-26.582-19.641-38.26-43.87-16.265-33.698-13.481-73.452 7.24-104.57 11.26-16.9 17.26-36.74 17.26-57.04v-43.33c0-55.23 44.77-100 100-100h48c55.23 0 100 44.77 100 100 0 45.887-1.121 54.873 4.41 73.12 7.805 25.801 18.114 28.993 26.06 55.25 12.491 41.274-1.326 86.287-35.37 113.39l-8.86 7.05c25.81 11.73 43.76 37.74 43.76 67.93z" fill="#ffdfba"/>
        <path d="m386.001 416.74v39.26c0 4.418-3.582 8-8 8h-292c-4.418 0-8-3.582-8-8v-39.26c0-41.162 33.369-74.57 74.57-74.57 6.13 0 11.95-1.33 17.18-3.71l.25.54 57.103 44.208c2.883 2.232 6.911 2.232 9.795 0l57.102-44.208.25-.54c5.23 2.38 11.05 3.71 17.18 3.71 41.041 0 74.57 33.249 74.57 74.57z" fill="#ffaa64"/>
        <path d="m323.429 146.258c4.247.242 7.572 3.732 7.572 7.986v47.886c0 41.27-25.25 76.64-61.15 91.5-64.917 26.947-136.85-20.924-136.85-91.5v-47.19c0-4.689 4.016-8.394 8.686-7.971 47.987 4.351 95.242-7.767 134.923-34.499 4.513-3.04 10.727-.788 12.152 4.464 4.936 18.194 18.399 28.397 34.667 29.324z" fill="#ffebd2"/>
        <path d="m351.101 341.76-8.86 7.05c-9.39-4.26-19.82-6.64-30.81-6.64-22.829 0-41.43-18.435-41.43-41.34v-6.83l-.15-.37c35.9-14.86 61.15-50.23 61.15-91.5v-47.886c0-4.254-3.325-7.744-7.572-7.986-16.168-.921-29.699-11.013-34.667-29.323-1.425-5.252-7.639-7.504-12.152-4.464-39.655 26.714-86.907 38.852-134.923 34.499-4.67-.423-8.686 3.282-8.686 7.971v47.19c0 41.27 25.25 76.64 61.15 91.5l-.15.37v6.83c0 22.901-18.596 41.34-41.43 41.34-10.99 0-21.42 2.38-30.81 6.64l-8.86-7.05c-43.011-34.272-52.588-95.695-22.16-141.39 11.26-16.9 17.26-36.74 17.26-57.04v-43.331c0-55.228 44.772-100 100-100h48c55.228 0 100 44.772 100 100v43.33c0 20.276 6 40.14 17.26 57.04 30.539 45.862 20.688 107.278-22.16 141.39z" fill="#42434d"/>
        <path d="m271.131 310.42c-24.637 10.313-51.712 11.113-78.26 0 1.356-5.626 1.13-9.27 1.13-16.42l.15-.37c24.082 9.996 51.571 10.016 75.7 0l.15.37c0 7.153-.226 10.796 1.13 16.42z" fill="#ffd6a6"/>
        <path d="m301.176 10.762c10.212 5.18 5.774 20.767-5.626 19.688-3.143-.298-6.329-.45-9.55-.45h-48c-55.228 0-100 44.772-100 100v12.168c0 7.184-5 6.952-5 12.772 0 52.822.214 49.478-.561 51.757-7.845 23.078-17.266 26.418-24.909 51.673-4.163 13.756-5.393 27.922-3.951 41.669 1.177 11.22-14.446 16.587-20.079 4.901-16.149-33.457-13.62-73.243 7.24-104.57 11.26-16.9 17.26-36.74 17.26-57.04v-43.33c0-55.228 44.772-100 100-100h48c16.257 0 31.607 3.879 45.176 10.762z" fill="#4d4e59"/>
        <path d="m213.022 268.449c14.939 10 3.553 33.13-13.41 27.177-37.286-13.084-66.611-47.883-66.611-93.497v-47.19c0-4.69 4.02-8.39 8.69-7.97 3.832.348 8.04.622 12.581.761 8.219.25 14.729 7.037 14.729 15.26v23.14c0 34.826 17.756 64.738 44.021 82.319z" fill="#fff3e4"/>
        <path d="m186.494 351.769c4.746 3.674 2.238 11.378-3.764 11.401-42.333.158-74.729 34.149-74.729 74.57v26.26h-22c-4.418 0-8-3.582-8-8v-39.26c0-41.163 33.37-74.57 74.57-74.57 6.13 0 11.95-1.33 17.18-3.71l.25.54z" fill="#ffbd7b"/>
        <path d="m277.507 351.769c-4.746 3.674-2.238 11.378 3.764 11.401 42.333.158 74.729 34.149 74.729 74.57v26.26h22c4.418 0 8-3.582 8-8v-39.26c0-41.163-33.37-74.57-74.57-74.57-6.13 0-11.95-1.33-17.18-3.71l-.25.54z" fill="#faa157"/>
    </symbol>
    <symbol id="profile" viewBox="0 0 512 512">
        <title>profile</title>
        <g>
            <path d="m256.025 483.334 101.429-25.614c57.895-48.074 94.771-120.586 94.771-201.719 0-125.144-87.711-229.801-205.012-255.852-137.316 4.631-247.213 117.407-247.213 255.851 0 71.112 29 135.446 75.812 181.836z" fill="#cbe2ff"/>
        </g>
        <g>
            <path d="m446.914 256c0 83.915-40.381 158.391-102.765 205.079l92.031-23.241c46.815-46.39 75.82-110.724 75.82-181.838 0-141.385-114.615-256-256-256-11.024 0-21.886.698-32.543 2.05 126.019 15.988 223.457 123.59 223.457 253.95z" fill="#bed8fb"/>
        </g>
        <g>
            <g>
                <g>
                    <path d="m319.621 96.952c0-13.075-10.599-23.674-23.674-23.674h-81.582c-30.091 0-54.485 24.394-54.485 54.485v60.493h192.209v-59.635c0-13.075-10.599-23.674-23.674-23.674h-.798c-4.416 0-7.996-3.579-7.996-7.995z" fill="#365e7d"/>
                    <path d="m328.415 104.947h-.798c-4.416 0-7.996-3.58-7.996-7.996 0-13.075-10.599-23.674-23.674-23.674h-8.945v114.978h65.086v-59.635c.001-13.073-10.599-23.673-23.673-23.673z" fill="#2b4d66"/>
                    <path d="m425.045 372.355c-6.259-6.182-14.001-10.963-22.79-13.745l-69.891-22.128-76.348-2.683-76.38 2.683-69.891 22.128c-23.644 7.486-39.713 29.428-39.713 54.229v19.094c44.789 47.328 107.451 77.568 177.183 79.92 78.128-17.353 143.129-69.576 177.83-139.498z" fill="#4a80aa"/>
                    <path d="m441.968 431.932v-19.094c0-17.536-8.04-33.635-21.105-44.213-37.111 75.626-110.422 130.268-197.346 141.317 10.492 1.329 21.178 2.038 32.026 2.057 10.423-.016 20.708-.62 30.824-1.782 61.031-7.212 115.485-35.894 155.601-78.285z" fill="#407093"/>
                    <path d="m261.796 508.168c15.489-30.751 55.822-118.067 44.321-172.609l-50.101-19.499-50.148 19.5c-11.856 56.225 31.37 147.277 45.681 175.29 3.442-.826 6.859-1.721 10.247-2.682z" fill="#e4f6ff"/>
                    <path d="m288.197 483.789-20.314-79.917h-23.767l-20.264 79.699 25.058 27.897c6.361-1.457 12.634-3.146 18.81-5.057z" fill="#e28086"/>
                    <path d="m249.302 511.905c2.075.054 4.154.091 6.241.095 2.415-.004 4.822-.046 7.222-.113l12.907-14.259c-10.159 3.564-20.61 6.506-31.309 8.779z" fill="#dd636e"/>
                    <g>
                        <g>
                            <g>
                                <g>
                                    <g>
                                        <g>
                                            <g>
                                                <g>
                                                    <path d="m298.774 328.183v-45.066h-85.58v45.066c0 23.632 42.79 49.446 42.79 49.446s42.79-25.814 42.79-49.446z" fill="#ffddce"/>
                                                </g>
                                            </g>
                                        </g>
                                    </g>
                                </g>
                            </g>
                        </g>
                        <path d="m352.089 180.318h-16.359c-9.098 0-16.473-7.375-16.473-16.473v-9.015c0-11.851-11.595-20.23-22.847-16.511-26.243 8.674-54.579 8.676-80.823.006l-.031-.01c-11.252-3.717-22.845 4.662-22.845 16.512v9.019c0 9.098-7.375 16.473-16.473 16.473h-16.358v26.938c0 6.883 5.58 12.464 12.464 12.464 2.172 0 3.939 1.701 4.076 3.869 2.628 41.668 37.235 74.654 79.565 74.654 42.33 0 76.937-32.986 79.565-74.654.137-2.167 1.904-3.869 4.076-3.869 6.883 0 12.464-5.58 12.464-12.464v-26.939z" fill="#ffddce"/>
                        <path d="m335.73 180.318c-9.098 0-16.473-7.375-16.473-16.473v-9.015c0-11.851-11.595-20.23-22.847-16.511-3.108 1.027-6.247 1.923-9.407 2.707v88.972c-.438 28.948-16.3 54.142-39.725 67.758 2.861.311 5.763.486 8.706.486 42.33 0 76.937-32.986 79.565-74.654.137-2.167 1.904-3.869 4.076-3.869 6.883 0 12.464-5.58 12.464-12.464v-26.938h-16.359z" fill="#ffcbbe"/>
                    </g>
                    <g fill="#f4fbff">
                        <path d="m213.194 316.06-33.558 27.267 35.192 43.513c4.281 4.168 11.019 4.424 15.605.594l26.465-22.107z"/>
                        <path d="m298.79 316.06-41.892 49.267 24.874 21.268c4.557 3.896 11.327 3.7 15.651-.453l34.94-42.815z"/>
                    </g>
                </g>
                <path d="m213.194 316.06-49.256 24.199c-3.75 1.842-5.256 6.404-3.341 10.117l9.65 18.71c2.501 4.848 1.578 10.756-2.282 14.61-1.987 1.983-4.139 4.131-6.004 5.993-3.338 3.332-4.537 8.255-3.067 12.737 11.651 35.517 67.725 89.828 88.946 109.478 1.427.038 2.857.064 4.29.08-15.389-29.933-69.922-143.655-38.936-195.924z" fill="#365e7d"/>
                <path d="m344.019 383.695c-3.861-3.854-4.783-9.762-2.282-14.61l9.65-18.71c1.915-3.713.409-8.275-3.341-10.117l-49.256-24.198c30.978 52.255-23.517 165.929-38.923 195.9 1.448-.025 2.893-.061 4.335-.109 21.265-19.695 77.248-73.94 88.888-109.424 1.47-4.482.271-9.405-3.067-12.737-1.865-1.863-4.017-4.012-6.004-5.995z" fill="#365e7d"/>
                <path d="m256.898 365.327-26.06 21.764 13.278 16.781h23.767l13.279-17.771z" fill="#dd636e"/>
            </g>
        </g>
    </symbol>
    <symbol id="grow-plant" viewBox="0 0 512 512">
        <title>grow-plant</title>
        <path style="fill:#00C063;" d="M445.759,0.757c-87.255,0-158.241,70.987-158.241,158.24v16.281h16.281 c87.255,0,158.241-70.987,158.241-158.24V0.757H445.759z"/>
        <path style="fill:#009A43;" d="M287.518,175.28h16.281c87.255,0,158.241-70.987,158.241-158.24V0.757L287.518,175.28z"/>
        <path style="fill:#00C063;" d="M159.276,52.457h-16.28v16.281c0,87.255,70.987,158.241,158.24,158.241h16.281v-16.281 C317.518,123.445,246.531,52.457,159.276,52.457z"/>
        <path style="fill:#009A43;" d="M159.276,52.457h-16.28L317.518,226.98v-16.281C317.518,123.445,246.531,52.457,159.276,52.457z"/>
        <path style="fill:#AE4B00;" d="M435.262,336.843c-25.724-28.687-68.777-76.7-122.751-81.185 c-82.85-6.884-137.142,40.91-139.414,42.947l10.017,11.166l0,0h0.001l10.016,11.165c0.093-0.083,2.061-1.816,5.718-4.478 l57.143,24.287l53.943,24.438l9.153,44.21l102.761-42.71c1.593,1.697,3.084,3.233,4.469,4.576l20.878-21.542 C444.228,346.843,440.074,342.208,435.262,336.843z"/>
        <path style="fill:#803400;" d="M435.262,336.843c-25.724-28.687-68.777-76.7-122.751-81.185c-3.381-0.281-6.71-0.462-9.994-0.568 v106.732l7.416,3.36l9.153,44.21l102.761-42.71c1.593,1.697,3.084,3.233,4.469,4.576l20.878-21.542 C444.228,346.843,440.074,342.208,435.262,336.843z"/>
        <path style="fill:#F9D5A5;" d="M508.117,369.113c-5.162-12.42-14.851-22.086-27.283-27.218s-26.117-5.116-38.539,0.046 L331.89,387.826c0.104-6.695-1.128-13.415-3.714-19.844c-5.25-13.05-15.33-23.114-28.386-28.339l-101.775-40.739 c-22.535-9.027-47.302-8.865-69.74,0.457l-50.517,20.995l5.757,13.852l0.081,5.425l-0.081,0.055l0.857,84.138l-5.619,13.909 l165.115,66.694c11.279,4.544,23.107,6.815,34.932,6.815c12.162,0,24.318-2.401,35.867-7.201l166.277-69.107 c12.42-5.162,22.086-14.851,27.218-27.283C513.295,395.22,513.279,381.534,508.117,369.113z"/>
        <g>
            <path style="fill:#F9BE77;" d="M506.878,366.384c-5.373,11.065-14.476,19.684-25.933,24.446l-166.277,69.107 c-11.549,4.8-23.705,7.201-35.867,7.201c-11.825,0-23.653-2.271-34.932-6.814l-159.783-64.54l0.285,28.042l-5.619,13.909 l165.115,66.694c11.279,4.544,23.107,6.815,34.932,6.815c12.162,0,24.318-2.401,35.867-7.201l166.277-69.107 c12.42-5.162,22.086-14.851,27.218-27.283c5.133-12.433,5.116-26.118-0.046-38.539C507.732,368.186,507.313,367.28,506.878,366.384 z"/>
            <polygon style="fill:#F9BE77;" points="83.934,380.806 84.371,379.721 83.906,334.045 83.515,334.208 83.596,339.634 83.515,339.688 "/>
        </g>
        <rect y="279.99" style="fill:#FF3100;" width="98.517" height="201.283"/>
        <rect x="69.518" y="258.851" style="fill:#FFFFFF;" width="29.999" height="233.652"/>
        <rect y="387.406" style="fill:#C81C00;" width="98.517" height="93.877"/>
        <rect x="69.518" y="387.406" style="fill:#DBDBDD;" width="29.999" height="105.096"/>
        <polygon style="fill:#FF9A00;" points="402.101,77.822 380.417,57.092 287.519,154.502 287.519,174.586 224.62,108.793 202.935,129.524 287.519,217.998 287.519,269.963 317.518,269.963 317.518,166.295 "/>
        <polygon style="fill:#D86100;" points="380.417,57.092 302.518,138.774 302.518,269.963 317.518,269.963 317.518,166.295 402.101,77.822 "/>
    </symbol>
    <symbol id="plant-pot" viewBox="0 0 512 512">
        <title>plant-pot</title>
        <g>
            <g>
                <g>
                    <g>
                        <path d="m122.607 104.83c-4.825-4.751-13.26-1.705-13.57 4.921-1.967 42.02 2.629 151.661 96.735 204.628 55.762 31.385 54.323-2.144 54.323-2.144l-3.227-75.194z" fill="#c6e873"/>
                    </g>
                    <g>
                        <path d="m389.393 104.83c4.825-4.751 13.26-1.705 13.57 4.921 1.967 42.02-2.629 151.661-96.735 204.628-55.762 31.385-54.323-2.144-54.323-2.144l3.227-75.194z" fill="#c6e873"/>
                    </g>
                </g>
                <g>
                    <path d="m262.663 11.78c-2.457-5.706-10.869-5.706-13.326 0-14.203 32.984-46.171 114.616-46.171 181.134 0 85.514 52.835 138.08 52.835 138.08s52.835-52.566 52.835-138.08c-.001-66.518-31.97-148.15-46.173-181.134z" fill="#b5e245"/>
                </g>
            </g>
            <g>
                <path d="m105.93 316.911 39.428 169.077c2.528 10.842 12.193 18.512 23.325 18.512h174.633c11.132 0 20.797-7.67 23.325-18.512l39.428-169.077z" fill="#eaaa89"/>
                <path d="m340.408 316.911-39.428 169.077c-2.528 10.842-12.193 18.512-23.325 18.512h65.661c11.132 0 20.797-7.67 23.325-18.512l39.428-169.077z" fill="#e4936b"/>
                <path d="m413.256 336.214h-314.512c-11.845 0-21.447-9.602-21.447-21.447 0-11.845 9.602-21.447 21.447-21.447h314.512c11.845 0 21.447 9.602 21.447 21.447 0 11.845-9.602 21.447-21.447 21.447z" fill="#e4936b"/>
                <path d="m413.256 293.32h-65.963c11.845 0 21.447 9.602 21.447 21.447 0 11.845-9.602 21.447-21.447 21.447h65.963c11.845 0 21.447-9.602 21.447-21.447 0-11.845-9.602-21.447-21.447-21.447z" fill="#e27d47"/>
            </g>
        </g>
        <path d="m413.256 285.82h-58.714c54.809-59.136 57.531-141.835 55.913-176.419-.279-5.974-3.976-11.063-9.646-13.284-5.762-2.259-12.308-.935-16.678 3.369l-54.246 53.418c-2.951 2.906-2.987 7.654-.081 10.606 2.906 2.95 7.654 2.986 10.606.081l54.245-53.418c.092-.09.175-.172.382-.151.187.004.351.073.437.129 1.618 34.703-1.317 120.58-62.256 175.669h-38.16c.658-1.377 1.291-2.764 1.919-4.153 14.724-14.862 42.389-45.279 60.713-80.668 1.904-3.678.467-8.204-3.212-10.108-3.677-1.905-8.203-.469-10.108 3.212-9.812 18.95-22.708 36.641-34.595 51.001 4.324-17.102 6.56-34.646 6.56-52.189 0-68.102-32.716-151.434-46.782-184.101-2.307-5.355-7.626-8.814-13.553-8.814s-11.246 3.459-13.552 8.813c-14.066 32.667-46.783 116.001-46.783 184.101 0 17.542 2.237 35.087 6.56 52.189-11.886-14.36-24.782-32.05-34.595-51-1.905-3.679-6.433-5.115-10.108-3.212-3.679 1.904-5.116 6.431-3.212 10.108 18.324 35.389 45.99 65.806 60.713 80.668.628 1.389 1.261 2.776 1.919 4.153h-38.161c-60.924-55.075-63.872-140.922-62.255-175.67.087-.056.25-.124.436-.128.189-.023.29.062.381.151l54.325 53.495c2.95 2.905 7.699 2.87 10.606-.081 2.906-2.952 2.87-7.7-.081-10.606l-54.326-53.495c-4.369-4.303-10.917-5.627-16.677-3.369-5.671 2.221-9.367 7.311-9.646 13.283-1.618 34.585 1.104 117.285 55.913 176.42h-58.713c-15.962 0-28.947 12.985-28.947 28.946 0 15.962 12.985 28.947 28.947 28.947h5.736l33.575 143.978c3.337 14.313 15.932 24.309 30.629 24.309h174.633c14.696 0 27.292-9.996 30.629-24.309l33.575-143.978h5.736c15.962 0 28.947-12.985 28.947-28.947-.001-15.96-12.986-28.946-28.948-28.946zm-157.256-270.55c13.818 32.171 45.334 112.688 45.334 177.645 0 39.701-12.065 71.873-23.027 92.906h-14.807v-145.833c0-4.143-3.357-7.5-7.5-7.5s-7.5 3.357-7.5 7.5v145.832h-14.807c-10.962-21.034-23.028-53.206-23.028-92.906 0-64.953 31.516-145.474 45.335-177.644zm157.256 313.444h-234.755c-4.143 0-7.5 3.357-7.5 7.5s3.357 7.5 7.5 7.5h213.618l-32.781 140.571c-1.746 7.486-8.334 12.715-16.021 12.715h-174.633c-7.688 0-14.275-5.229-16.021-12.715l-32.781-140.571h23.56c4.143 0 7.5-3.357 7.5-7.5s-3.357-7.5-7.5-7.5h-44.698c-7.69 0-13.947-6.257-13.947-13.947s6.257-13.946 13.947-13.946h314.512c7.69 0 13.947 6.256 13.947 13.946s-6.257 13.947-13.947 13.947z"/>
    </symbol>
    <symbol id="fern" viewBox="0 0 512 512">
        <title>fern</title>
        <path d="m512 256c0 141.385-114.615 256-256 256-50.899 0-98.328-14.854-138.189-40.464-2.209-1.419-1.274-5.364-3.436-6.849-2.173-1.492-7.442-.524-9.565-2.081-63.549-46.581-104.81-121.775-104.81-206.606 0-29.024 4.83-56.92 13.73-82.928 11.03-32.232 39.689-49.753 61.774-74.738 20.596-23.301 33.994-54.631 61.774-69.199 14.015-7.349 28.795-13.438 44.189-18.115.756-.23 3.898 4.891 4.656 4.669 5.196-1.526 10.461-2.891 15.788-4.091.866-.195-.652-5.733.217-5.919 7.308-1.565 14.732-2.818 22.257-3.745 1.996-.246 5.604 3.579 7.614 3.38 8.422-.836 34.176-1.299 38.688-1.063 1.592.084 2.119-3.712 3.704-3.6 132.801 9.427 237.609 120.148 237.609 255.349z" fill="#495959"/>
        <path d="m98.499 171.383c-15.583 15.087-28.321 34.317-36.471 56.74-8.15 22.422-10.732 45.344-8.472 66.916.463 4.425 5.814 6.37 9.011 3.275 15.583-15.087 28.321-34.317 36.471-56.74s10.732-45.344 8.472-66.916c-.464-4.425-5.815-6.37-9.011-3.275zm365.134 29.077c-15.583 15.087-28.321 34.317-36.471 56.74-8.149 22.422-10.732 45.344-8.472 66.916.463 4.425 5.814 6.37 9.011 3.275 15.583-15.087 28.321-34.317 36.471-56.74s10.732-45.344 8.472-66.916c-.464-4.425-5.815-6.37-9.011-3.275zm-119.247-110.972c-21.585 2.125-43.519 9.265-63.844 21.758s-36.601 28.839-48.245 47.138c-2.388 3.753.593 8.604 5.02 8.168 21.585-2.125 43.519-9.265 63.844-21.758s36.601-28.839 48.245-47.138c2.388-3.753-.593-8.604-5.02-8.168z" fill="#607882"/>
        <path d="m474.812 102.282c6.339-2.526 12.796 3.354 10.873 9.902-9.376 31.92-26.409 62.931-51.049 89.987-24.639 27.056-53.927 46.907-84.833 59.22-6.339 2.526-12.796-3.354-10.873-9.902 9.376-31.92 26.409-62.931 51.049-89.987 24.639-27.056 53.926-46.908 84.833-59.22zm-275.127 179.805c18.557 20.684 40.331 36.239 63.112 46.318 4.673 2.067 9.238-2.029 7.688-6.897-7.557-23.737-20.667-47.066-39.223-67.749s-40.331-36.239-63.112-46.318c-4.673-2.067-9.238 2.029-7.688 6.897 7.557 23.737 20.666 47.065 39.223 67.749zm32.873-50.921c15.037 27.192 34.825 49.624 57.051 66.358 4.559 3.432 10.517.138 10.033-5.548-2.358-27.721-10.839-56.406-25.876-83.598s-34.825-49.624-57.051-66.358c-4.559-3.432-10.517-.138-10.033 5.548 2.359 27.721 10.839 56.406 25.876 83.598zm63.505-32.754c-1.442 28.493 3.655 55.602 13.812 79.467 2.083 4.895 8.883 5.239 11.45.58 12.516-22.718 20.324-49.173 21.767-77.666 1.442-28.493-3.655-55.602-13.812-79.467-2.083-4.895-8.883-5.239-11.45-.58-12.516 22.717-20.325 49.173-21.767 77.666zm-132.085 125.25c20.324 17.633 42.963 30.133 65.787 37.388 4.682 1.488 8.407-2.806 6.273-7.231-10.402-21.573-25.971-42.222-46.295-59.855s-42.963-30.133-65.787-37.388c-4.682-1.488-8.407 2.806-6.273 7.231 10.403 21.573 25.971 42.222 46.295 59.855zm-20.704 41.811c17.367 11.363 35.979 18.547 54.197 21.69 3.737.645 6.149-3.042 4.062-6.207-10.175-15.435-24.21-29.614-41.576-40.978s-35.979-18.547-54.197-21.69c-3.737-.645-6.149 3.042-4.062 6.207 10.174 15.436 24.209 29.615 41.576 40.978zm-11.458 46.859c17.892.419 34.793-2.736 49.565-8.628 3.03-1.209 3.118-4.948.148-6.298-14.48-6.578-31.214-10.521-49.106-10.94s-34.793 2.736-49.565 8.628c-3.03 1.209-3.118 4.948-.148 6.298 14.479 6.577 31.214 10.52 49.106 10.94zm247.235 30.854c4.739 1.808 9.099-2.505 7.343-7.263-8.562-23.198-22.63-45.696-41.998-65.276-19.368-19.581-41.712-33.892-64.815-42.707-4.739-1.808-9.099 2.505-7.343 7.263 8.562 23.198 22.63 45.696 41.998 65.276 19.368 19.581 41.712 33.892 64.815 42.707zm69.374-42.189c5.659.829 9.303-4.922 6.136-9.685-15.441-23.221-36.723-44.354-63.044-61.031s-54.519-26.895-82.111-30.938c-5.659-.829-9.303 4.922-6.136 9.685 15.441 23.221 36.723 44.354 63.044 61.031 26.321 16.676 54.519 26.894 82.111 30.938zm32.017-107.769c4.804-2.285 4.866-9.093.104-11.464-23.218-11.561-49.975-18.264-78.503-18.522s-55.402 5.961-78.825 17.101c-4.804 2.285-4.866 9.093-.104 11.465 23.218 11.561 49.975 18.264 78.503 18.522 28.529.257 55.402-5.961 78.825-17.102zm-153.303 189.743c4.237 2.325 8.745-1.138 7.591-5.831-5.626-22.883-16.46-45.842-32.537-66.772s-35.467-37.317-56.126-48.652c-4.237-2.325-8.745 1.138-7.591 5.831 5.626 22.883 16.46 45.842 32.537 66.772 16.077 20.929 35.467 37.316 56.126 48.652zm-61.577 12.284c3.041 2.28 6.864.092 6.438-3.685-2.076-18.414-8.165-37.469-18.502-55.533-10.338-18.063-23.683-32.966-38.508-44.083-3.041-2.28-6.864-.092-6.438 3.685 2.076 18.414 8.165 37.469 18.502 55.533 10.338 18.063 23.683 32.966 38.508 44.083zm-77.883 14.277c1.165 3.182 4.903 3.317 6.295.228 6.786-15.061 10.97-32.51 11.647-51.21s-2.234-36.406-7.914-51.918c-1.165-3.182-4.903-3.317-6.295-.228-6.786 15.061-10.97 32.51-11.647 51.21-.677 18.701 2.235 36.406 7.914 51.918z" fill="#9bcf1b"/>
        <path d="m83.539 120.499c-20.609 22.63-44.469 40.219-69.809 52.573 21.316-62.29 65.979-113.749 123.549-143.937-1.112 1.173-29.654 64.916-53.74 91.364zm65.57-90.564c-12.516 22.718-20.324 49.173-21.767 77.666-1.442 28.493 3.655 55.602 13.813 79.467 2.083 4.895 8.883 5.24 11.45.58 12.516-22.718 20.324-49.173 21.767-77.666s-3.655-55.602-13.813-79.467c-2.083-4.895-8.883-5.24-11.45-.58zm164.123 37.922c-6.419-22.467-18.219-44.336-35.382-63.467-1.138-1.269-2.292-2.515-3.458-3.739-6.075-.432-12.208-.651-18.392-.651-10.704 0-21.255.657-31.614 1.933 5.928 10.776 13.224 21.13 21.887 30.786 17.163 19.131 37.629 33.226 59.271 42.036 4.439 1.807 9.004-2.289 7.688-6.898zm-68.724-10.607c-11.302-20.437-25.837-37.773-42.378-51.572-6.998 1.499-13.889 3.283-20.662 5.341 2.365 23.204 9.521 46.759 21.832 69.019 13.806 24.966 32.438 45.307 53.657 60.222 4.353 3.059 10.31-.235 10.033-5.548-1.352-25.902-8.676-52.496-22.482-77.462z" fill="#84b017"/>
        <path d="m261.059 46.97c-9.973-9.279-7.71-25.558 4.339-31.914.128-.068.256-.135.385-.203 8.731-4.587 19.587-1.948 25.195 6.165 10.213 14.775 17.636 30.662 22.261 46.861 1.314 4.604-3.258 8.681-7.693 6.876-13.268-5.401-26.093-12.788-37.987-22.104-1.783-1.396-4.056-3.407-6.5-5.681zm-170.984 65.624c-2.199 2.885-4.385 5.544-6.536 7.905-20.609 22.63-44.469 40.219-69.809 52.573 10.568-30.882 26.874-59.101 47.647-83.386 15.458-18.072 43.113 3.995 28.698 22.908zm113.225-32.556c13.807 24.967 32.438 45.307 53.658 60.223 4.33 3.044 10.308-.262 10.032-5.548-1.352-25.902-8.676-52.496-22.482-77.463-.69-1.248-1.392-2.484-2.106-3.709-5.598-9.603-17.24-13.788-27.754-10.182-.139.048-.277.095-.416.143-13.367 4.61-19.58 20.101-13.031 32.633.682 1.305 1.382 2.606 2.099 3.903zm-75.958 27.564c-1.442 28.493 3.655 55.603 13.813 79.468 2.073 4.87 8.895 5.215 11.45.58 12.516-22.718 20.324-49.174 21.767-77.667.043-.84.079-1.68.111-2.518.498-13.364-10.135-24.496-23.508-24.496-12.442 0-22.691 9.69-23.487 22.107-.055.84-.103 1.682-.146 2.526z" fill="#9bcf1b"/>
        <path d="m227.344 279.417c-8.522 8.522-22.443 8.143-30.509-.811-1.831-2.032-3.253-3.65-3.853-4.395-15.045-18.647-25.909-39.104-32.521-59.875-1.477-4.639 3.239-8.864 7.691-6.895 20.23 8.951 39.667 22.22 56.76 39.564.566.574 1.739 1.854 3.218 3.502 7.457 8.313 7.11 21.014-.786 28.91zm-40.146 40.146c7.987-7.987 7.554-21.075-.959-28.497-.929-.81-1.627-1.407-1.974-1.687-18.872-15.228-39.508-26.189-60.298-32.799-4.348-1.382-8.266 3.116-6.284 7.226 9.045 18.758 21.996 36.818 38.583 52.804.738.711 2.328 2.133 4.295 3.854 7.727 6.758 19.377 6.358 26.637-.901zm-39.478 13.23c-.714-.398-1.359-.746-1.908-1.026-13.154-6.712-26.744-11.191-40.12-13.491-3.473-.597-5.934 3.276-3.995 6.218 6.654 10.095 14.96 19.652 24.769 28.236 1.666 1.458 3.375 2.887 5.126 4.287 5.765 4.606 14.103 4.048 19.321-1.17 6.841-6.841 5.259-18.345-3.193-23.054zm172.988-130.448c1.331-.22 2.667-.397 4.008-.531 10.609-1.055 18.669-9.96 18.299-20.615-.043-1.242-.099-2.383-.171-3.367-1.466-20.097-6.186-39.192-13.588-56.566-2.082-4.886-8.863-5.173-11.426-.522-9.698 17.603-16.57 37.451-19.844 58.752-.01.062-.019.125-.029.19-1.952 13.264 9.527 24.85 22.751 22.659zm-88.15 28.821c.097.176.195.352.293.528 7.573 13.607 26.136 16.079 37.148 5.068 7.369-7.369 9.072-18.735 4.052-27.868-.095-.172-.19-.345-.285-.517-15.037-27.192-34.826-49.624-57.052-66.359-4.318-3.251-10.49.163-10.032 5.548 2.359 27.722 10.839 56.408 25.876 83.6zm-137.536 159.837c-4.191 1.161-8.253 2.53-12.167 4.091-2.786 1.111-2.878 5.056-.147 6.296 3.837 1.743 7.832 3.301 11.964 4.657 2.799.918 5.881.159 7.964-1.923 5.688-5.687.138-15.269-7.614-13.121zm379.728-288.697c-30.884 12.315-60.148 32.157-84.771 59.195-7.14 7.84-13.641 16.011-19.502 24.441-7.623 10.965-6.564 25.792 2.662 35.447.135.141.269.282.403.423 10.203 10.741 27.036 11.77 38.368 2.229 7.922-6.669 15.522-13.963 22.725-21.872 24.64-27.056 41.673-58.067 51.049-89.988 1.923-6.542-4.599-12.401-10.934-9.875zm-288.102 392.752c-1.664 1.664-2.281 4.106-1.625 6.365.802 2.763 1.689 5.468 2.656 8.109 1.042 2.847 5.049 2.993 6.295.229 1.155-2.563 2.234-5.194 3.234-7.89 2.404-6.483-5.669-11.703-10.56-6.813zm204.869-164.777c-3.364-2.131-6.758-4.156-10.177-6.077-9.052-5.084-20.397-3.44-27.738 3.901-10.123 10.123-8.864 27.002 2.803 35.299 3.219 2.289 6.522 4.509 9.91 6.655 26.321 16.677 54.52 26.895 82.112 30.938 5.351.784 9.13-5.18 6.136-9.684-15.442-23.221-36.725-44.355-63.046-61.032zm89.03-48.517c-16.002-7.969-33.686-13.629-52.472-16.462-3.704-.559-10.339-1.019-16.891-1.349-9.661-.487-18.478 5.348-21.918 14.388-.075.198-.151.396-.228.594-5.694 14.654 4.917 30.496 20.638 30.471 7.726-.012 14.417-.202 17.441-.593 19.042-2.461 37.019-7.83 53.323-15.584 4.785-2.275 4.85-9.103.107-11.465zm-136.151 88.882c-.576-.583-1.155-1.16-1.737-1.734-8.314-8.197-21.665-8.2-29.92.055-8.193 8.193-8.26 21.418-.216 29.757.566.587 1.137 1.172 1.713 1.754 19.369 19.581 41.713 33.893 64.816 42.707 4.559 1.74 9.031-2.684 7.342-7.262-8.562-23.197-22.629-45.696-41.998-65.277zm-42.203 39.722c-.062-.081-.124-.161-.186-.242-7.033-9.126-20.545-9.88-28.692-1.733l-.652.652c-6.77 6.77-7.58 17.54-1.754 25.138.035.046.07.091.104.136 16.078 20.93 35.468 37.318 56.127 48.653 3.997 2.193 8.679-1.403 7.59-5.831-5.625-22.883-16.459-45.843-32.537-66.773zm-40.359 42.56c-.446-1.066-1.085-2.441-1.836-3.982-4.368-8.969-16.285-10.952-23.339-3.897-5.044 5.044-5.642 12.975-1.509 18.79 1.657 2.331 3.367 4.596 5.125 6.792 7.634 9.538 16.179 17.793 25.283 24.621 2.815 2.111 6.838-.184 6.443-3.681-1.438-12.755-4.801-25.816-10.167-38.643z" fill="#b9e746"/>
        <path d="m352.793 257.18c-76.662 81.51-156.367 154.219-234.985 214.354-4.434-2.849-8.774-5.83-13.015-8.939 79.224-60.201 159.674-133.398 237.043-215.658 2.413-2.566 6.288-3.083 9.292-1.242.043.027.087.053.131.08 4.009 2.453 4.754 7.981 1.534 11.405z" fill="#84b017"/>
    </symbol>
    <symbol id="pot" viewBox="0 0 512 512">
        <title>pot</title>
        <path d="m305.668 138.495c-2.682-3.156-7.416-3.542-10.571-.858l-34.532 29.345c-1.882-4.98-3.255-7.792-3.514-8.309-22.006-44.983-4.674-77.436-3.857-78.916 2.022-3.602.751-8.164-2.848-10.199-3.606-2.038-8.181-.77-10.221 2.836-.919 1.626-22.227 40.42 3.508 92.983.018.036.384.78.992 2.191l-38.142-12.108c-3.946-1.25-8.164.933-9.418 4.879-1.253 3.948.932 8.165 4.879 9.418l48.831 15.501c2.47 8.618 5.077 19.922 6.917 33.708 4.244 31.786 5.164 83.616-14.551 150.027-1.18 3.971 1.084 8.146 5.055 9.324.713.212 1.431.313 2.138.313 3.234 0 6.22-2.109 7.187-5.367 20.603-69.397 19.485-123.77 14.921-157.163-1.852-13.547-4.385-24.82-6.864-33.694l39.233-33.34c3.155-2.681 3.54-7.415.857-10.571z" fill="#68ca44"/>
        <g>
            <path d="m318.995 512h-125.99c-18.982 0-34.975-14.549-37.258-33.893l-20.278-171.799h241.062l-20.278 171.799c-2.283 19.344-18.276 33.893-37.258 33.893z" fill="#e19974"/>
            <path d="m345.626 306.308-20.278 171.799c-2.283 19.344-18.277 33.893-37.258 33.893h30.906c18.981 0 34.975-14.549 37.258-33.893l20.278-171.799z" fill="#dc8758"/>
        </g>
        <ellipse cx="263.121" cy="45.274" fill="#97da7b" rx="48.576" ry="29.847" transform="matrix(.46 -.888 .888 .46 101.855 258.054)"/>
        <path d="m285.458 2.139c-7.564-3.912-17.057-2.276-26.169 3.494 10.145 10.204 10.285 32.404-.562 53.351-5.963 11.515-14.155 20.531-22.68 25.93 1.393 1.4 2.969 2.58 4.737 3.494 14.642 7.572 36.512-5.602 48.849-29.425s10.467-49.272-4.175-56.844z" fill="#80d261"/>
        <path d="m381.682 311.63h-251.364c-9.672 0-17.513-7.841-17.513-17.513 0-9.672 7.841-17.513 17.513-17.513h251.364c9.672 0 17.513 7.841 17.513 17.513 0 9.672-7.841 17.513-17.513 17.513z" fill="#dc8758"/>
        <path d="m381.682 276.604h-30.905c9.672 0 17.513 7.841 17.513 17.513 0 9.672-7.841 17.513-17.513 17.513h30.905c9.672 0 17.513-7.841 17.513-17.513 0-9.673-7.841-17.513-17.513-17.513z" fill="#d77f4a"/>
        <ellipse cx="317.703" cy="130.739" fill="#97da7b" rx="55.905" ry="34.35" transform="matrix(.78 -.626 .626 .78 -11.871 227.74)"/>
        <path d="m361.303 95.747c-7.713-9.621-22.724-11.431-38.898-6.219 3.138 1.485 5.85 3.546 7.993 6.219 11.866 14.802 1.966 42.467-22.114 61.793-8.429 6.765-17.476 11.603-26.187 14.41 14.239 6.739 37.361 1.426 57.093-14.41 24.079-19.325 33.979-46.991 22.113-61.793z" fill="#80d261"/>
        <ellipse cx="175.943" cy="155.823" fill="#97da7b" rx="34.35" ry="55.905" transform="matrix(.276 -.961 .961 .276 -22.39 281.921)"/>
        <path d="m185.396 122.799c-13.855-3.974-27.405-4.372-38.45-1.814 2.496.491 5.014 1.089 7.544 1.814 29.679 8.513 49.506 30.199 44.285 48.438-2.784 9.724-12.128 16.503-24.741 19.425 26.788 5.27 50.871-2.741 55.647-19.425 5.221-18.24-14.606-39.926-44.285-48.438z" fill="#80d261"/>
    </symbol>


    <symbol id="settings" viewBox="0 2 98 98">
        <title>settings</title>
        <style type="text/css"> .st0{fill:url(#SVGID_1_);} .st1{fill:url(#SVGID_2_);} .st2{fill:url(#SVGID_3_);} </style>
        <g>
            <linearGradient id="SVGID_1_" gradientUnits="userSpaceOnUse" x1="49" y1="85.3333" x2="49" y2="9.6659" gradientTransform="matrix(1 0 0 -1 0 104)">
                <stop offset="0" style="stop-color:#00EFD1"/>
                <stop offset="1" style="stop-color:#00ACEA"/>
            </linearGradient>
            <path class="st0" d="M88.1,49.5H76.5c-1.4-6.2-6.9-10.8-13.5-10.8s-12.1,4.6-13.5,10.8H9.9c-1.7,0-3,1.3-3,3s1.3,3,3,3h39.6 c1.4,6.2,6.9,10.8,13.5,10.8s12.1-4.6,13.5-10.8h11.6c1.7,0,3-1.3,3-3C91.1,50.8,89.8,49.5,88.1,49.5z M63,60.3 c-4.3,0-7.8-3.5-7.8-7.8s3.5-7.8,7.8-7.8s7.8,3.5,7.8,7.8S67.3,60.3,63,60.3z"/>
            <linearGradient id="SVGID_2_" gradientUnits="userSpaceOnUse" x1="49" y1="85.3333" x2="49" y2="9.6659" gradientTransform="matrix(1 0 0 -1 0 104)">
                <stop offset="0" style="stop-color:#00EFD1"/>
                <stop offset="1" style="stop-color:#00ACEA"/>
            </linearGradient>
            <path class="st1" d="M88.1,74.3H48.5c-1.4-6.2-6.9-10.8-13.5-10.8s-12.1,4.6-13.5,10.8H9.9c-1.7,0-3,1.3-3,3s1.3,3,3,3h11.6 c1.4,6.2,6.9,10.8,13.5,10.8s12.1-4.6,13.5-10.8h39.6c1.7,0,3-1.3,3-3S89.8,74.3,88.1,74.3z M35,85.1c-4.3,0-7.8-3.5-7.8-7.8 s3.5-7.8,7.8-7.8s7.8,3.5,7.8,7.8S39.3,85.1,35,85.1z"/>
            <linearGradient id="SVGID_3_" gradientUnits="userSpaceOnUse" x1="49" y1="85.3333" x2="49" y2="9.6659" gradientTransform="matrix(1 0 0 -1 0 104)">
                <stop offset="0" style="stop-color:#00EFD1"/>
                <stop offset="1" style="stop-color:#00ACEA"/>
            </linearGradient>
            <path class="st2" d="M9.9,31.7h11.6c1.4,6.2,6.9,10.8,13.5,10.8s12.1-4.6,13.5-10.8h39.6c1.7,0,3-1.3,3-3s-1.3-3-3-3H48.5 c-1.4-6.2-6.9-10.8-13.5-10.8s-12.1,4.6-13.5,10.8H9.9c-1.7,0-3,1.3-3,3S8.2,31.7,9.9,31.7z M35,20.9c4.3,0,7.8,3.5,7.8,7.8 s-3.5,7.8-7.8,7.8s-7.8-3.5-7.8-7.8S30.7,20.9,35,20.9z"/>
        </g>
    </symbol>

    <symbol id="message"
        xmlns="http://www.w3.org/2000/svg"
        xmlns:xlink="http://www.w3.org/1999/xlink" x="0px" y="0px" viewBox="0 0 512 512" style="enable-background:new 0 0 512 512;" xml:space="preserve">
        <circle style="fill:#5F98D1;" cx="256" cy="256" r="256"/>
        <path style="fill:#3A6DA1;" d="M415.813,147.466H95.558l116.019,120.806l33.48,33.9c-18.216-4.164-19.343-6.759-27.415-13.349
	c-4.234-3.457-12.414-12.852-24.838-25.54C154.023,223.682,88.217,156.484,88.217,156.484v198.822l8.265,8.265l-0.925,0.963
	L242.68,511.657c4.412,0.226,8.852,0.343,13.32,0.343c141.385,0,256-114.615,256-256c0-4.246-0.11-8.466-0.313-12.661
	L415.813,147.466z"/>
        <g>
            <polygon style="fill:#FFFFFF;" points="88.217,156.484 88.217,355.306 185.175,255.493 	"/>
            <polygon style="fill:#FFFFFF;" points="423.783,156.484 423.783,355.306 327.307,255.895 	"/>
            <path style="fill:#FFFFFF;" d="M95.558,147.466h320.255L289.948,278.524c-8.958,9.327-21.331,14.599-34.262,14.599
		s-25.304-5.272-34.262-14.599L95.558,147.466z"/>
            <path style="fill:#FFFFFF;" d="M297.209,285.496c-10.799,11.244-25.933,17.694-41.523,17.694c-15.589,0-30.724-6.448-41.522-17.693
		l-21.349-22.23L95.558,364.534h320.255l-97.256-101.267L297.209,285.496z"/>
        </g>
    </symbol>

    <symbol id="music" enable-background="new 0 0 512 512" viewBox="0 0 512 512">
        <g>
            <g>
                <path d="m205 0c-113.218 0-205 91.782-205 205s91.782 205 205 205 205-91.782 205-205-91.782-205-205-205zm0 270c-35.841 0-65-29.158-65-65s29.159-65 65-65 65 29.158 65 65-29.159 65-65 65z" fill="#0d8ebc"/>
                <g>
                    <path d="m270 205c0 35.842-29.159 65-65 65v140c113.218 0 205-91.782 205-205s-91.782-205-205-205v140c35.841 0 65 29.158 65 65z" fill="#0a617d"/>
                    <path d="m205 100c-57.897 0-105 47.103-105 105s47.103 105 105 105 105-47.103 105-105-47.103-105-105-105zm0 150c-24.813 0-45-20.187-45-45s20.187-45 45-45 45 20.187 45 45-20.187 45-45 45z" fill="#f9f9f9"/>
                    <path d="m205 160c24.813 0 45 20.187 45 45s-20.187 45-45 45v60c57.897 0 105-47.103 105-105s-47.103-105-105-105z" fill="#d5d3ea"/>
                </g>
            </g>
            <path d="m506.231 235.177c-3.641-2.843-8.389-3.85-12.869-2.729l-160 40c-6.677 1.669-11.362 7.669-11.362 14.552v146.266c-3.197-.826-6.548-1.266-10-1.266-22.056 0-40 17.944-40 40s17.944 40 40 40 40-17.944 40-40v-123.289l130-32.5v97.055c-3.197-.826-6.548-1.266-10-1.266-22.056 0-40 17.944-40 40s17.944 40 40 40 40-17.944 40-40v-205c0-4.619-2.128-8.98-5.769-11.823z" fill="#ff6b6b"/>
            <g>
                <path d="m506.231 235.177c-3.641-2.843-8.389-3.85-12.869-2.729l-80 20v80.922l68.638-17.159v97.055c-3.197-.826-6.548-1.266-10-1.266-22.056 0-40 17.944-40 40s17.944 40 40 40 40-17.944 40-40v-205c0-4.619-2.128-8.98-5.769-11.823z" fill="#ec3d93"/>
            </g>
        </g>

    </symbol>

    <symbol id="news" viewBox="0 0 512 512">
        <g>
            <path d="m152 256a104 104 0 1 0 104-104 104 104 0 0 0 -104 104zm104-72a72 72 0 1 1 -72 72 72.006 72.006 0 0 1 72-72z" fill="#ffff"/>
            <g fill="#062a7e">
                <path d="m256 144a112 112 0 1 0 112 112 112.127 112.127 0 0 0 -112-112zm0 208a96 96 0 1 1 96-96 96.108 96.108 0 0 1 -96 96z"/>
                <path d="m256 176a80 80 0 1 0 80 80 80.091 80.091 0 0 0 -80-80zm0 144a64 64 0 1 1 64-64 64.072 64.072 0 0 1 -64 64z"/>
                <path d="m502.277 251.04c-1.121-1.418-27.958-35.143-71.64-69.34-25.734-20.145-51.967-36.215-77.971-47.762-32.783-14.557-65.307-21.938-96.666-21.938s-63.883 7.381-96.666 21.938c-26 11.547-52.237 27.617-77.971 47.762-43.682 34.2-70.519 67.922-71.64 69.34a8 8 0 0 0 0 9.92c1.121 1.418 27.958 35.143 71.64 69.34 25.734 20.145 51.967 36.215 77.971 47.762 32.783 14.557 65.307 21.938 96.666 21.938s63.883-7.381 96.666-21.938c26-11.547 52.237-27.617 77.971-47.762 43.682-34.2 70.519-67.922 71.64-69.34a8 8 0 0 0 0-9.92zm-81.5 66.66c-38.638 30.246-98.587 66.3-164.777 66.3-66.066 0-125.909-35.928-164.478-66.067a470.38 470.38 0 0 1 -65.11-61.933 469.323 469.323 0 0 1 64.814-61.7c38.635-30.246 98.584-66.3 164.774-66.3 66.066 0 125.909 35.928 164.478 66.067a470.488 470.488 0 0 1 65.11 61.933 469.4 469.4 0 0 1 -64.814 61.7z"/>
            </g>
        </g>
    </symbol>
    <symbol id="birth" enable-background="new 0 0 512 512" viewBox="0 0 512 512">
        <g id="XMLID_503_">
            <g id="XMLID_1206_">
                <g id="XMLID_1212_">
                    <path id="XMLID_1213_" d="m256 159c-8.284 0-15-6.716-15-15v-29.748c0-8.284 6.716-15 15-15s15 6.716 15 15v29.748c0 8.284-6.715 15-15 15z" fill="#5f69e2"/>
                </g>
            </g>
            <g id="XMLID_1180_">
                <g id="XMLID_1181_">
                    <path id="XMLID_1183_" d="m456.055 285.088h-400.11c-8.284 0-15 6.716-15 15v175.565c0 8.284 6.716 15 15 15h400.109c8.284 0 15-6.716 15-15v-175.565c.001-8.284-6.715-15-14.999-15z" fill="#ffe377"/>
                    <g id="XMLID_970_">
                        <path id="XMLID_1182_" d="m456.055 285.088h-200.055v205.565h200.055c8.284 0 15-6.716 15-15v-175.565c0-8.285-6.716-15-15-15z" fill="#fc0"/>
                    </g>
                </g>
            </g>
            <g id="XMLID_1141_">
                <g id="XMLID_1167_">
                    <path id="XMLID_1170_" d="m135.169 159c-8.284 0-15-6.716-15-15v-29.748c0-8.284 6.716-15 15-15s15 6.716 15 15v29.748c0 8.284-6.715 15-15 15z" fill="#5f69e2"/>
                </g>
                <g id="XMLID_1154_">
                    <g id="XMLID_1163_">
                        <g id="XMLID_1164_">
                            <path id="XMLID_1166_" d="m376.831 159c-8.284 0-15-6.716-15-15v-29.748c0-8.284 6.716-15 15-15s15 6.716 15 15v29.748c0 8.284-6.716 15-15 15z" fill="#3440da"/>
                        </g>
                    </g>
                    <g id="XMLID_1161_">
                        <path id="XMLID_1162_" d="m401.857 38.064c-6.841-12.735-13.583-23.445-13.867-23.895-2.416-3.831-6.63-6.155-11.159-6.155s-8.743 2.324-11.159 6.155c-.284.45-7.026 11.16-13.867 23.895-13.272 24.707-14.973 34.596-14.973 40.451 0 22.061 17.944 40.009 40 40.009s40-17.948 40-40.009c-.001-5.856-1.703-15.744-14.975-40.451z" fill="#fc0"/>
                    </g>
                </g>
            </g>
            <g id="XMLID_518_">
                <path id="XMLID_1140_" d="m256.001 99.252-.001 59.748c8.284 0 15-6.716 15-15v-29.748c.001-8.284-6.715-15-14.999-15z" fill="#3440da"/>
            </g>
            <path id="XMLID_1139_" d="m267.16 14.168c-2.416-3.831-6.63-6.155-11.159-6.155-4.53 0-8.743 2.324-11.159 6.155-.284.45-7.026 11.16-13.867 23.895-13.272 24.707-14.973 34.596-14.973 40.451 0 22.061 17.944 40.009 40 40.009s40-17.948 40-40.009c0-5.855-1.702-15.744-14.973-40.451-6.843-12.734-13.585-23.445-13.869-23.895z" fill="#ffe377"/>
            <g id="XMLID_969_">
                <path id="XMLID_1136_" d="m281.027 38.064c-6.841-12.735-13.583-23.445-13.867-23.895-2.416-3.831-6.63-6.155-11.159-6.155v110.51c22.056 0 40-17.948 40-40.009-.001-5.856-1.702-15.744-14.974-40.451z" fill="#fc0"/>
            </g>
            <g id="XMLID_1130_">
                <g id="XMLID_1132_">
                    <g id="XMLID_1133_">
                        <path id="XMLID_1135_" d="m497 503.987h-482c-8.284 0-15-6.716-15-15s6.716-15 15-15h482c8.284 0 15 6.716 15 15s-6.716 15-15 15z" fill="#e5e5e5"/>
                    </g>
                </g>
            </g>
            <g id="XMLID_966_">
                <path id="XMLID_1103_" d="m497 473.987h-241v30h241c8.284 0 15-6.716 15-15s-6.716-15-15-15z" fill="#d6d6d6"/>
            </g>
            <path id="XMLID_1085_" d="m277.714 142.825h-43.427c-10.099 0-18.286 8.187-18.286 18.286v115.854c0 10.099 8.187 18.286 18.286 18.286h43.427c10.099 0 18.286-8.187 18.286-18.286v-115.854c0-10.099-8.187-18.286-18.286-18.286z" fill="#989eec"/>
            <g id="XMLID_1072_">
                <path id="XMLID_1084_" d="m156.883 142.825h-43.427c-10.099 0-18.286 8.187-18.286 18.286v115.854c0 10.099 8.187 18.286 18.286 18.286h43.427c10.099 0 18.286-8.187 18.286-18.286v-115.854c0-10.099-8.187-18.286-18.286-18.286z" fill="#989eec"/>
                <path id="XMLID_1074_" d="m398.544 142.825h-43.427c-10.099 0-18.286 8.187-18.286 18.286v115.854c0 10.099 8.187 18.286 18.286 18.286h43.427c10.099 0 18.286-8.187 18.286-18.286v-115.854c.001-10.099-8.187-18.286-18.286-18.286z" fill="#7c83e7"/>
            </g>
            <g id="XMLID_965_">
                <path id="XMLID_1070_" d="m277.713 142.825h-21.713v152.427h21.713c10.1 0 18.287-8.187 18.287-18.287v-115.854c0-10.099-8.187-18.286-18.287-18.286z" fill="#7c83e7"/>
            </g>
            <path id="XMLID_1069_" d="m441.688 256.33h-371.375c-23.075 0-41.849 17.143-41.849 38.214v38.672c0 10.518 5.068 20.334 13.904 26.935 9.994 7.464 23.29 9.751 35.565 6.115l37.866-11.21c21.882-6.477 45.984-6.476 67.864 0l29.889 8.848c13.688 4.053 28.065 6.078 42.447 6.078 14.379-.001 28.763-2.026 42.447-6.078l29.889-8.848c21.882-6.479 45.982-6.477 67.864 0l37.866 11.21c12.275 3.633 25.572 1.347 35.564-6.115 8.837-6.601 13.904-16.417 13.904-26.935v-38.672c.003-21.071-18.77-38.214-41.845-38.214z" fill="#ffa1c0"/>
            <g id="XMLID_302_">
                <path id="XMLID_1060_" d="m441.688 256.33h-185.688v113.651c14.379-.001 28.763-2.026 42.447-6.078l29.889-8.848c21.882-6.479 45.982-6.477 67.864 0l37.866 11.21c12.275 3.633 25.572 1.347 35.564-6.115 8.837-6.601 13.904-16.417 13.904-26.935v-38.672c.002-21.07-18.771-38.213-41.846-38.213z" fill="#ff80a9"/>
            </g>
            <path id="XMLID_1059_" d="m146.329 14.168c-2.416-3.831-6.63-6.155-11.159-6.155s-8.743 2.324-11.159 6.155c-.284.45-7.026 11.16-13.867 23.895-13.273 24.708-14.975 34.596-14.975 40.452 0 22.061 17.944 40.009 40 40.009s40-17.948 40-40.009c0-5.855-1.702-15.744-14.973-40.451-6.841-12.735-13.583-23.446-13.867-23.896z" fill="#ffe377"/>
        </g>
    </symbol>

    <symbol id='suitcase' enable-background="new 0 0 512 512" viewBox="0 0 512 512">
        <g>
            <g>
                <path d="m336.835 54.806c-.831-.634-8.527-6.359-22.236-11.868-17.661-7.098-37.926-10.85-58.603-10.85s-40.941 3.752-58.604 10.85c-13.708 5.509-21.404 11.234-22.236 11.869-4.174 3.183-6.624 8.132-6.624 13.381v26.401l16.827 9 16.828-9v-16.872c9.235-4.713 27.703-11.975 53.808-11.975 26.106 0 44.573 7.262 53.808 11.975v16.871l16.827 9 16.828-9v-26.4c.002-5.25-2.448-10.199-6.623-13.382z" fill="#e8834d"/>
                <g fill="#d66e41">
                    <path d="m168.533 94.589v18.58l16.828 9 16.828-9v-18.58z"/>
                    <path d="m343.46 94.589h-33.655v18.58l16.828 9 16.827-9z"/>
                </g>
                <path d="m13.247 298.286v149.492c0 17.747 14.387 32.134 32.134 32.134h421.238c17.747 0 32.134-14.387 32.134-32.134v-149.492z" fill="#365e7d"/>
                <path d="m13.247 279.706v18.581c26.696 21.196 97.252 62.343 242.753 62.343s216.057-41.147 242.753-62.344v-18.581h-485.506z" fill="#2b4d66"/>
                <path d="m11.852 269.005c25.585 20.83 96.043 63.464 244.148 63.464s218.562-42.634 244.148-63.464c7.5-6.106 11.852-24.256 11.852-33.927v-89.775c0-17.747-14.387-32.134-32.134-32.134h-447.732c-17.747 0-32.134 14.387-32.134 32.134v89.775c0 9.671 4.352 27.821 11.852 33.927z" fill="#407093"/>
                <path d="m500.148 260.005c-25.585 20.83-96.043 63.464-244.148 63.464s-218.562-42.635-244.148-63.464c-7.5-6.106-11.852-15.256-11.852-24.927v18.581c0 9.671 4.352 18.821 11.852 24.927 25.585 20.83 96.043 63.464 244.148 63.464s218.562-42.634 244.148-63.464c7.5-6.106 11.852-15.256 11.852-24.927v-18.581c0 9.671-4.352 18.821-11.852 24.927z" fill="#365e7d"/>
                <path d="m255.997 372.974c16.624 0 30.1-12.344 30.1-39.1v-18.25c0-5.916-4.796-10.711-10.711-10.711h-38.778c-5.916 0-10.711 4.796-10.711 10.711v18.253c-.001 26.753 13.476 39.097 30.1 39.097z" fill="#ffe27a"/>
                <path d="m255.997 363.974c-16.624 0-30.1-13.476-30.1-30.1v18.581c0 16.624 13.476 30.1 30.1 30.1s30.1-13.476 30.1-30.1v-18.581c0 16.623-13.476 30.1-30.1 30.1z" fill="#f9cf58"/>
            </g>
        </g>
    </symbol>

    <symbol id="search" enable-background="new 0 0 512 512" viewBox="0 0 512 512">
        <g>
            <g>
                <path d="m13.217 498.794c-8.524-8.523-13.217-19.855-13.217-31.908s4.693-23.385 13.217-31.908l329.861-329.861c5.857-5.858 15.355-5.857 21.213 0l42.604 42.603c2.813 2.813 4.394 6.628 4.394 10.606s-1.58 7.793-4.394 10.606l-329.862 329.862c-8.797 8.797-20.353 13.195-31.908 13.195s-23.111-4.398-31.908-13.195z" fill="#464b52"/>
            </g>
            <path d="m406.895 147.72c2.813 2.813 4.394 6.628 4.394 10.606s-1.58 7.793-4.394 10.606l-329.862 329.862c-8.797 8.797-20.353 13.195-31.908 13.195s-23.111-4.398-31.908-13.195l372.376-372.376z" fill="#292b2f"/>
            <circle cx="316.25" cy="195.761" fill="#76cefb" r="195.75"/>
            <path d="m454.601 57.409c35.446 35.446 57.399 84.383 57.399 138.352 0 107.937-87.813 195.75-195.75 195.75-53.968 0-102.906-21.953-138.351-57.399z" fill="#6897f4"/>
            <circle cx="316.25" cy="195.761" fill="#e1faff" r="135.5"/>
            <path d="m316.25 331.261c-37.357 0-71.232-15.196-95.768-39.732l191.536-191.536c24.536 24.536 39.732 58.411 39.732 95.768 0 74.715-60.785 135.5-135.5 135.5z" fill="#c7f5ff"/>
        </g>
    </symbol>
    <symbol id="like" enable-background="new 0 0 510 510" viewBox="0 0 510 510">
        <g id="XMLID_3979_">
            <path id="XMLID_4073_" d="m30 180c-10.492 0-19.508 0-30 0v150l15 15 15-15 11-75z" fill="#5a5a5a"/>
            <path id="XMLID_4052_" d="m0 330v150h30l11-75-11-75c-10.492 0-19.508 0-30 0z" fill="#444"/>
            <path id="XMLID_4054_" d="m510 292.5c0-2.524-.251-5.032-.752-7.5-11.689-9.545-25.053-20.455-36.743-30 .231-.049 14.614.914 26.512-10.983 6.786-6.787 10.983-16.162 10.983-26.517 0-20.71-16.789-37.5-37.5-37.5-4.865 0-167.635 0-172.5 0 0-10.506 0-75.959 0-86.5 0-35.068-28.429-63.5-63.5-63.5-4.021 0-7.479 0-11.5 0-12.363 86.542-11.325 99.488-24.951 119.928-6.099 9.146-43.955 65.93-50.049 75.072l-16 52.5 16 52.5 161.252 15 161.253-15c.231-.049 14.614.914 26.512-10.983 6.786-6.787 10.983-16.162 10.983-26.517z" fill="#fcc"/>
            <path id="XMLID_4016_" d="m150 435c12.708 5.446 92.208 39.518 105 45h217.5c10.355 0 19.73-4.197 26.517-10.983 11.238-11.238 10.47-24.099 10.983-26.517 0-2.524-.251-5.032-.752-7.5-11.689-9.545-25.053-20.455-36.743-30 .231-.049 14.614.914 26.512-10.983 6.786-6.787 10.983-16.162 10.983-26.517 0-2.524-.251-5.032-.752-7.5-11.689-9.545-25.053-20.455-36.743-30-17.87 0-304.566 0-322.505 0l-16 52.5z" fill="#ffb3b3"/>
            <path id="XMLID_3980_" d="m30 180v150l52.5 15 67.5-15c0-16.07 0-131.894 0-150-14.518 0-105.386 0-120 0z" fill="#2ee66b"/>
            <path id="XMLID_4043_" d="m416.252 255h-56.252v30h149.248c-1.751-8.627-6.463-16.178-13.029-21.547-16.789-13.726-32.373-6.4-79.967-8.453z" fill="#ffb3b3"/>
            <path id="XMLID_4040_" d="m360 360h149.248c-1.751-8.627-6.463-16.178-13.029-21.547-16.789-13.727-32.373-6.4-79.967-8.453h-56.252v15z" fill="#f99"/>
            <path id="XMLID_4022_" d="m360 435h149.248c-1.751-8.627-6.463-16.178-13.029-21.547-13.785-11.27-14.52-8.453-136.219-8.453z" fill="#f99"/>
            <path id="XMLID_3991_" d="m30 330v150h120c0-18.105 0-133.914 0-150-26.413 0-98.436 0-120 0z" fill="#24b383"/>
            <path id="XMLID_4017_" d="m105 435h-30s0-19.508 0-30h30z" fill="#dbf0f9"/>
        </g>
    </symbol>

    <symbol id='save' viewBox="0 0 74 74">
        <g id="color_line" data-name="color line">
            <path d="m13.085 3h47.83a8.025 8.025 0 0 1 8.025 8.025v59.975l-23.915-15.248-23.915 15.248v-48.579" fill="#fe7058"/>
            <path d="m68.94 11.03v59.97l-4.01-2.56v-54.2a8.028 8.028 0 0 0 -8.03-8.02h-42.49l-1.33-3.22h47.84a8.021 8.021 0 0 1 8.02 8.03z" fill="#ea6453"/>
            <path d="m13.085 3a8.025 8.025 0 0 0 -8.025 8.025v11.4h16.05v-11.4a8.025 8.025 0 0 0 -8.025-8.025z" fill="#fe7058"/>
            <g fill="#323c6b">
                <path d="m21.11 22.921h-16.05a.5.5 0 0 1 -.5-.5v-11.4a8.525 8.525 0 1 1 17.051 0v11.4a.5.5 0 0 1 -.501.5zm-15.551-1h15.051v-10.9a7.525 7.525 0 1 0 -15.051 0z"/>
                <path d="m35.023 66.188a.5.5 0 0 1 -.27-.921l6.915-4.409a.5.5 0 1 1 .538.843l-6.915 4.409a.5.5 0 0 1 -.268.078z"/>
                <path d="m32.25 67.956a.5.5 0 0 1 -.27-.921l.516-.329a.5.5 0 1 1 .538.843l-.516.329a.5.5 0 0 1 -.268.078z"/>
                <path d="m71.872 10.313a.5.5 0 0 1 -.5-.445 10.483 10.483 0 0 0 -3.66-6.861.5.5 0 0 1 .647-.762 11.478 11.478 0 0 1 4.006 7.514.5.5 0 0 1 -.442.552z"/>
                <path d="m71.94 12.938a.5.5 0 0 1 -.5-.5v-.688a.5.5 0 0 1 1 0v.688a.5.5 0 0 1 -.5.5z"/>
                <path d="m68.94 71.5a.5.5 0 0 1 -.269-.079l-23.646-15.076-23.646 15.076a.5.5 0 0 1 -.769-.421v-48.579a.5.5 0 0 1 1 0v47.667l23.146-14.757a.5.5 0 0 1 .538 0l23.146 14.757v-59.063a7.534 7.534 0 0 0 -7.525-7.525h-47.83a.5.5 0 0 1 0-1h47.83a8.535 8.535 0 0 1 8.525 8.525v59.975a.5.5 0 0 1 -.5.5z"/>
            </g>
            <path d="m24.044 39.381.017-7.356a.6.6 0 1 1 1.2 0l-.017 7.356a.6.6 0 1 1 -1.2 0z" fill="#fff"/>
            <path d="m24.026 41.673v-.232a.6.6 0 0 1 1.2 0v.232a.6.6 0 1 1 -1.2 0z" fill="#fff"/>
        </g>
    </symbol>

    <symbol id="comment" enable-background="new 0 0 512 512" viewBox="0 0 512 512">
        <g>
            <g>
                <path d="m408.043 5.851h-348.062c-33.127 0-59.981 26.854-59.981 59.981v279.509c0 33.127 26.854 59.981 59.981 59.981 4.738 0 8.579 3.841 8.579 8.579v50.142h12.362l47.71-45.758c5.065-4.858 11.552-7.965 18.512-8.867l31.592-4.096h27.676c-.001 0-.002 0-.002 0h201.631c33.127 0 59.981-26.854 59.981-59.981v-279.509c0-33.126-26.853-59.98-59.979-59.981z" fill="#95d6a4"/>
                <g fill="#77ce8e">
                    <path d="m452.019 5.851h-56.34c33.127 0 59.981 26.854 59.981 59.981v279.509c0 33.127-26.854 59.981-59.981 59.981h56.34c33.127 0 59.981-26.855 59.981-59.981v-279.509c0-33.127-26.854-59.981-59.981-59.981z"/>
                    <path d="m124.068 410.807-55.508 53.236v33.204c0 7.826 9.386 11.829 15.034 6.412l96.813-92.852c3.67-3.519 8.558-5.485 13.642-5.485h-56.34c-5.084 0-9.972 1.965-13.641 5.485z"/>
                </g>
                <g>
                    <g>
                        <path d="m434.876 121.336h-271.524c-4.267 0-7.726-3.459-7.726-7.726s3.459-7.726 7.726-7.726h271.524c4.267 0 7.726 3.459 7.726 7.726s-3.459 7.726-7.726 7.726z" fill="#fff"/>
                    </g>
                    <g>
                        <path d="m434.876 203.299h-357.752c-4.267 0-7.726-3.459-7.726-7.726s3.459-7.726 7.726-7.726h357.752c4.267 0 7.726 3.459 7.726 7.726s-3.459 7.726-7.726 7.726z" fill="#fff"/>
                    </g>
                    <g>
                        <path d="m434.876 285.263h-357.752c-4.267 0-7.726-3.459-7.726-7.726s3.459-7.726 7.726-7.726h357.752c4.267 0 7.726 3.459 7.726 7.726 0 4.266-3.459 7.726-7.726 7.726z" fill="#fff"/>
                    </g>
                </g>
            </g>
        </g>
    </symbol>

    <symbol id="plus" viewBox="0 0 455.431 455.431"
        xmlns="http://www.w3.org/2000/svg"
        xmlns:xlink="http://www.w3.org/1999/xlink" x="0px" y="0px" style="enable-background:new 0 0 455.431 455.431;" xml:space="preserve">
        <path style="fill:#8DC640;" d="M405.493,412.764c-69.689,56.889-287.289,56.889-355.556,0c-69.689-56.889-62.578-300.089,0-364.089
	s292.978-64,355.556,0S475.182,355.876,405.493,412.764z"/>
        <g style="opacity:0.2;">
            <path style="fill:#FFFFFF;" d="M229.138,313.209c-62.578,49.778-132.267,75.378-197.689,76.8
		c-48.356-82.489-38.4-283.022,18.489-341.333c51.2-52.622,211.911-62.578,304.356-29.867
		C377.049,112.676,330.116,232.142,229.138,313.209z"/>
        </g>
        <path style="fill:#FFFFFF;" d="M362.827,227.876c0,14.222-11.378,25.6-25.6,25.6h-85.333v85.333c0,14.222-11.378,25.6-25.6,25.6
	c-14.222,0-25.6-11.378-25.6-25.6v-85.333H115.36c-14.222,0-25.6-11.378-25.6-25.6c0-14.222,11.378-25.6,25.6-25.6h85.333v-85.333
	c0-14.222,11.378-25.6,25.6-25.6c14.222,0,25.6,11.378,25.6,25.6v85.333h85.333C351.449,202.276,362.827,213.653,362.827,227.876z" />
    </symbol>

    <symbol id="send"
         viewBox="0 0 512 512" style="enable-background:new 0 0 512 512;" xml:space="preserve">
        <path style="fill:#FE9923;" d="M120,339.226V496.99c0,14.374,18.38,20.499,26.997,8.994l77.065-102.729l23.492-12.037L501.919,31.57
	l4.731-27.966l-41.329,22.839L119.916,326.288L120,339.226z"/>
        <path style="fill:#FEDB41;" d="M491.237,1.196C490.56,1.467,8.933,243.282,8.279,243.61c-10.503,5.251-11.149,20.024-1.157,26.191
	l112.866,69.463L506.638,3.642l0,0C502.707,0.236,497.062-1.218,491.237,1.196z"/>
        <path style="fill:#FFCC33;" d="M507.165,4.34c-0.216-0.211-0.287-0.538-0.515-0.736l-2.935,4.16l-279.653,395.49l173.071,106.509
	c9.014,5.541,20.68,0.258,22.603-10.005l92.021-481.989C512.735,12.682,510.673,7.755,507.165,4.34z"/>

    </symbol>

    <symbol id="dial_pot" enable-background="new 0 0 220.277 220.277"  viewBox="0 0 220.277 220.277"
    xmlns="http://www.w3.org/2000/svg">
    <g>
        <g>
            <path d="m109.736 204.443c-1.683 0-3.05-1.357-3.062-3.04 0-4.693 0-115.19 60.097-161.654 1.417-.922 3.314-.521 4.237.894.825 1.267.602 2.947-.527 3.955-57.683 44.7-57.705 155.643-57.705 156.761.012 1.69-1.348 3.072-3.04 3.084z" fill="#5fa348"/>
            <path d="m126.41 115.269s7.711-39.939 50.308-24.138c0 0-19.981 38.196-50.308 24.138z" fill="#65b54e"/>
            <path d="m120.776 115.247s18.417-36.318-25.076-49.549c0-.001-7.598 42.373 25.076 49.549z" fill="#65b54e"/>
            <path d="m148.133 68.021s15.287-32.184 47.962-9.454c-.068.001-25.389 28.004-47.962 9.454z" fill="#65b54e"/>
            <path d="m143.283 66.769s23.578-26.819-10.393-47.537c0 0-15.733 34.284 10.393 47.537z" fill="#65b54e"/>
            <path d="m165.811 43.727s10.124-41.905 54.466-23.02c0 .001-22.975 39.381-54.466 23.02z" fill="#65b54e"/>
            <path d="m110.72 204.376c1.214-.225 2.016-1.389 1.792-2.604-.007-.041-.016-.082-.026-.123-.737-3.442-18.528-84.548-70.11-108.999-1.148-.543-2.519-.053-3.062 1.096-.543 1.148-.053 2.519 1.096 3.062 49.617 23.467 67.496 104.931 67.496 105.802.213 1.216 1.37 2.029 2.586 1.817.047-.009.094-.018.141-.029z" fill="#5fa348"/>
            <g fill="#65b54e">
                <path d="m98.963 175.657s-6.124-32.742-41.101-20.114c.068.089 16.249 31.489 41.101 20.114z"/>
                <path d="m103.634 175.679s-14.907-29.814 20.763-40.475c.001 0 6.035 34.731-20.763 40.475z"/>
                <path d="m84.146 141.596s-12.002-28.071-40.832-9.632c0-.001 20.829 24.83 40.832 9.632z"/>
                <path d="m88.281 140.68s-19.377-23.714 10.437-40.408c0 0 12.381 29.948-10.437 40.408z"/>
                <path d="m60.635 110.396s-16.383-21.188-36.72.759c-.002 0 23.086 16.517 36.72-.759z"/>
                <path d="m63.942 108.697s-21.612-15.869 0-36.565c0-.02 17.142 22.642 0 36.565z"/>
                <path d="m43.693 95.422s-14.148-29.055-43.693-8.225c0-.001 23.266 25.277 43.693 8.225z"/>
            </g>
            <g fill="#5fa348">
                <path d="m106.831 163.097c2.275-7.178 5.826-13.885 10.482-19.801-3.297 3.761-6.133 7.904-8.448 12.337.289-2.263.029-4.564-.759-6.705.815 2.56.862 5.303.134 7.889-3.768 7.475-6.003 15.629-6.57 23.981h2.235c.09-5.417.902-10.799 2.414-16.002h.179c2.543-4.447 6.72-7.727 11.644-9.141-4.519 1.099-8.515 3.728-11.311 7.442z"/>
                <path d="m92.483 168.46h.134c-1.652-3.724-4.416-6.848-7.912-8.94 3.077 2.068 5.503 4.967 6.996 8.359-2.48-1.664-5.072-3.157-7.755-4.47l.134-.134-7.777-6.906 6.705 6.504c-4.602-2.201-9.448-3.852-14.438-4.917 5.88 1.589 11.503 4.012 16.696 7.197-4.664.167-9.332-.101-13.946-.805 4.997 1.046 10.092 1.57 15.198 1.564 2.231 1.424 4.366 2.991 6.392 4.693l-15.957.693 16.963.157c3.013 2.588 5.761 5.47 8.202 8.604l1.699-1.341c-3.346-3.87-7.152-7.315-11.334-10.258z"/>
                <path d="m88.371 132.03c.109-3.328.498-6.639 1.162-9.901 1.189-2.549 3.143-4.665 5.588-6.056-2.082 1.031-3.872 2.567-5.207 4.47.946-4.022 2.317-7.933 4.09-11.666-1.185 2.163-2.222 4.403-3.106 6.705.169-1.746-.132-3.505-.872-5.096.96 2.241 1.049 4.759.245 7.062-1.163 3.326-2.016 6.752-2.548 10.236-.844-2.386-1.875-4.704-3.084-6.928 1.213 2.523 2.2 5.149 2.95 7.845-.849 5.645-.849 11.385 0 17.03l1.944-.38c-.805-3.918-1.188-7.912-1.14-11.913 1.153-3.486 3.536-6.435 6.705-8.291-2.928 1.506-5.29 3.921-6.727 6.883z"/>
                <path d="m88.951 143.317c-3.762-2.787-7.852-5.099-12.18-6.884-2.31-2.588-5.175-4.62-8.381-5.945 2.775 1.322 5.247 3.2 7.263 5.52-3.26-1.276-6.624-2.263-10.058-2.95l-7.711-4.715 6.594 4.47c-3.683-.698-7.426-1.034-11.175-1.006 5.864.236 11.659 1.358 17.187 3.331l-9.52.313 10.974.269c5.742 2.169 11.095 5.256 15.845 9.141z"/>
                <path d="m66.02 112.34c-1.533-3.125-2.726-6.407-3.554-9.789.382-2.239 1.517-4.282 3.219-5.789-1.629 1.286-2.822 3.041-3.42 5.028-.775-3.307-1.21-6.685-1.297-10.08.153-3.542 1.978-6.801 4.917-8.783-2.333 1.432-4.078 3.652-4.917 6.257 0-.358 0-.715 0-1.096.101-2.514.392-5.016.872-7.486-.523 2.172-.91 4.373-1.162 6.594l-1.408-4.47 1.319 5.028c-.25 2.502-.31 5.021-.179 7.532-.63-1.388-1.552-2.623-2.705-3.621 1.278 1.231 2.217 2.771 2.727 4.47.339 5.853 1.701 11.603 4.022 16.986z"/>
                <path d="m65.104 110.798c-3.242-1.322-6.613-2.303-10.058-2.928h-.179c-2.076-.37-4.174-.615-6.281-.737-3.695-.325-7.323-1.184-10.773-2.548 2.344 1.079 4.793 1.911 7.309 2.48-4.341.057-8.658.658-12.851 1.789 1.931-.413 3.887-.703 5.855-.872-1.372.423-2.642 1.123-3.733 2.056 1.812-1.345 3.981-2.122 6.235-2.235 3.549-.169 7.108.032 10.616.604-3.573.796-6.892 2.47-9.655 4.873 3.348-2.588 7.381-4.141 11.6-4.47 3.858.762 7.61 1.984 11.175 3.643z"/>
                <path d="m35.871 90.415c-4.257-3.166-8.996-5.626-14.036-7.285 4.275 1.561 8.285 3.77 11.891 6.548-3.034-.968-6.134-1.714-9.275-2.235v-.133h-.38c-4.475-.737-9.015-.984-13.544-.737 4.006-.013 8.003.369 11.935 1.14-3.758.894-7.586 1.455-11.443 1.676 4.379-.007 8.745-.464 13.03-1.363 1.902.392 3.781.884 5.632 1.474-2.994 1.739-6.45 2.52-9.901 2.235 3.661.498 7.384-.2 10.616-1.99 2.385.811 4.72 1.758 6.996 2.839-4.821 1.897-9.914 3.022-15.086 3.331 5.507-.021 10.97-.972 16.158-2.817 3.2 1.585 6.244 3.463 9.096 5.61l1.251-1.699c-4.032-2.711-8.377-4.925-12.94-6.594z"/>
                <path d="m162.66 99.422c-5.015-.25-10.042-.04-15.018.626 5.132-2.673 10.544-4.771 16.136-6.257-7.83 1.661-15.365 4.494-22.349 8.403 2.543-2.226 4.933-4.624 7.152-7.174-3.921 4.046-8.268 7.658-12.963 10.773-5.504 3.699-10.5 8.102-14.863 13.096l2.056 1.654c2.867-3.63 6.069-6.983 9.566-10.012l21.455-.223-20.114-.849c3.67-3.071 7.613-5.801 11.777-8.158 5.64-1.23 11.394-1.859 17.165-1.879z"/>
                <path d="m119.748 103.4c.862-5.804.62-11.719-.715-17.433 1.098 5.278 1.182 10.716.245 16.024-1.363-4.021-3.037-7.929-5.006-11.689h.134l-3.554-13.723 2.436 11.777c-2.548-4.541-5.542-8.815-8.94-12.761 4.792 6.15 8.62 12.992 11.353 20.293-4.322-3.248-8.153-7.102-11.377-11.443 3.278 4.969 7.321 9.39 11.979 13.096 2.73 7.742 4.157 15.883 4.223 24.092h2.659c-.401-6.191-1.557-12.315-3.437-18.233z"/>
                <path d="m184.495 58.008c-3.279-.164-6.567-.082-9.833.245 2.213-.661 4.26-1.78 6.012-3.285-2.242 1.759-4.911 2.893-7.733 3.285v.157c-1.922.245-3.845.558-5.743.938-2.235.492-4.47 1.096-6.705 1.811 2.273-1.927 4.24-4.187 5.833-6.705-1.984 2.818-4.46 5.256-7.309 7.197-5.895 1.98-11.496 4.745-16.65 8.225l1.408 1.855c2.993-2.278 6.178-4.29 9.52-6.012 5.203-.498 10.441-.498 15.644 0-4.599-.7-9.249-1.022-13.901-.96 4.378-2.096 8.961-3.729 13.678-4.873 3.827-.404 7.691.245 11.175 1.877-2.56-1.376-5.373-2.213-8.269-2.458 4.24-.846 8.55-1.281 12.873-1.297z"/>
                <path d="m146.546 40.554c.226 4.759-.333 9.525-1.654 14.102-.35-4.254-1.098-8.467-2.235-12.582.799-4.097.875-8.303.223-12.427.52 3.724.354 7.511-.492 11.175-1.14-3.921-2.636-7.729-4.47-11.377 2.867 6.592 4.655 13.603 5.297 20.763-1.937-3.56-3.517-7.303-4.715-11.175 1.148 4.488 2.79 8.836 4.895 12.963.47 6.757-.125 13.544-1.765 20.114l2.235.536c.991-5.153 1.373-10.403 1.14-15.644 1.544-5.336 2.067-10.917 1.541-16.448z"/>
                <path d="m201.772 28.015c-3.665-.245-7.353-.291-11.018-.179 5.031-2.195 10.274-3.872 15.644-5.006-6.184.997-12.234 2.692-18.036 5.052-1.855.759-3.709 1.587-5.498 2.48 2.26-2.172 4.068-4.77 5.319-7.644-1.775 3.61-4.464 6.691-7.799 8.94-7.695 4.09-14.694 9.369-20.74 15.644l2.235 1.855c3.645-4.221 7.727-8.042 12.18-11.399 4.793-1.062 9.685-1.624 14.594-1.676-4.422-.194-8.854.038-13.231.693 4.401-3.195 9.111-5.943 14.058-8.202 4.083-.411 8.188-.597 12.292-.558z"/>
            </g>
        </g>
    </g>
</symbol>

<symbol  id="arrow"  viewBox="0 0 490.667 490.667" style="enable-background:new 0 0 490.667 490.667;" xml:space="preserve">
<path style="fill:#009688;" d="M466.219,237.781L231.552,3.115C229.548,1.115,226.831-0.005,224,0H32
	c-5.891-0.011-10.675,4.757-10.686,10.648c-0.005,2.84,1.123,5.565,3.134,7.571l227.136,227.115L24.448,472.448
	c-4.171,4.16-4.179,10.914-0.019,15.085c2.006,2.011,4.731,3.139,7.571,3.134h192c2.831,0.005,5.548-1.115,7.552-3.115
	l234.667-234.667c4.171-4.16,4.179-10.914,0.019-15.085C466.231,237.794,466.225,237.788,466.219,237.781z"/>
</symbol>
</svg>