<svg id="Capa_1" enable-background="new 0 0 512 512" height="512" viewBox="0 0 512 512" width="512" xmlns="http://www.w3.org/2000/svg"><g><path d="m512 256c0 141.385-114.615 256-256 256-50.899 0-98.328-14.854-138.189-40.464-2.209-1.419-1.274-5.364-3.436-6.849-2.173-1.492-7.442-.524-9.565-2.081-63.549-46.581-104.81-121.775-104.81-206.606 0-29.024 4.83-56.92 13.73-82.928 11.03-32.232 39.689-49.753 61.774-74.738 20.596-23.301 33.994-54.631 61.774-69.199 14.015-7.349 28.795-13.438 44.189-18.115.756-.23 3.898 4.891 4.656 4.669 5.196-1.526 10.461-2.891 15.788-4.091.866-.195-.652-5.733.217-5.919 7.308-1.565 14.732-2.818 22.257-3.745 1.996-.246 5.604 3.579 7.614 3.38 8.422-.836 34.176-1.299 38.688-1.063 1.592.084 2.119-3.712 3.704-3.6 132.801 9.427 237.609 120.148 237.609 255.349z" fill="#495959"/><path d="m98.499 171.383c-15.583 15.087-28.321 34.317-36.471 56.74-8.15 22.422-10.732 45.344-8.472 66.916.463 4.425 5.814 6.37 9.011 3.275 15.583-15.087 28.321-34.317 36.471-56.74s10.732-45.344 8.472-66.916c-.464-4.425-5.815-6.37-9.011-3.275zm365.134 29.077c-15.583 15.087-28.321 34.317-36.471 56.74-8.149 22.422-10.732 45.344-8.472 66.916.463 4.425 5.814 6.37 9.011 3.275 15.583-15.087 28.321-34.317 36.471-56.74s10.732-45.344 8.472-66.916c-.464-4.425-5.815-6.37-9.011-3.275zm-119.247-110.972c-21.585 2.125-43.519 9.265-63.844 21.758s-36.601 28.839-48.245 47.138c-2.388 3.753.593 8.604 5.02 8.168 21.585-2.125 43.519-9.265 63.844-21.758s36.601-28.839 48.245-47.138c2.388-3.753-.593-8.604-5.02-8.168z" fill="#607882"/><path d="m474.812 102.282c6.339-2.526 12.796 3.354 10.873 9.902-9.376 31.92-26.409 62.931-51.049 89.987-24.639 27.056-53.927 46.907-84.833 59.22-6.339 2.526-12.796-3.354-10.873-9.902 9.376-31.92 26.409-62.931 51.049-89.987 24.639-27.056 53.926-46.908 84.833-59.22zm-275.127 179.805c18.557 20.684 40.331 36.239 63.112 46.318 4.673 2.067 9.238-2.029 7.688-6.897-7.557-23.737-20.667-47.066-39.223-67.749s-40.331-36.239-63.112-46.318c-4.673-2.067-9.238 2.029-7.688 6.897 7.557 23.737 20.666 47.065 39.223 67.749zm32.873-50.921c15.037 27.192 34.825 49.624 57.051 66.358 4.559 3.432 10.517.138 10.033-5.548-2.358-27.721-10.839-56.406-25.876-83.598s-34.825-49.624-57.051-66.358c-4.559-3.432-10.517-.138-10.033 5.548 2.359 27.721 10.839 56.406 25.876 83.598zm63.505-32.754c-1.442 28.493 3.655 55.602 13.812 79.467 2.083 4.895 8.883 5.239 11.45.58 12.516-22.718 20.324-49.173 21.767-77.666 1.442-28.493-3.655-55.602-13.812-79.467-2.083-4.895-8.883-5.239-11.45-.58-12.516 22.717-20.325 49.173-21.767 77.666zm-132.085 125.25c20.324 17.633 42.963 30.133 65.787 37.388 4.682 1.488 8.407-2.806 6.273-7.231-10.402-21.573-25.971-42.222-46.295-59.855s-42.963-30.133-65.787-37.388c-4.682-1.488-8.407 2.806-6.273 7.231 10.403 21.573 25.971 42.222 46.295 59.855zm-20.704 41.811c17.367 11.363 35.979 18.547 54.197 21.69 3.737.645 6.149-3.042 4.062-6.207-10.175-15.435-24.21-29.614-41.576-40.978s-35.979-18.547-54.197-21.69c-3.737-.645-6.149 3.042-4.062 6.207 10.174 15.436 24.209 29.615 41.576 40.978zm-11.458 46.859c17.892.419 34.793-2.736 49.565-8.628 3.03-1.209 3.118-4.948.148-6.298-14.48-6.578-31.214-10.521-49.106-10.94s-34.793 2.736-49.565 8.628c-3.03 1.209-3.118 4.948-.148 6.298 14.479 6.577 31.214 10.52 49.106 10.94zm247.235 30.854c4.739 1.808 9.099-2.505 7.343-7.263-8.562-23.198-22.63-45.696-41.998-65.276-19.368-19.581-41.712-33.892-64.815-42.707-4.739-1.808-9.099 2.505-7.343 7.263 8.562 23.198 22.63 45.696 41.998 65.276 19.368 19.581 41.712 33.892 64.815 42.707zm69.374-42.189c5.659.829 9.303-4.922 6.136-9.685-15.441-23.221-36.723-44.354-63.044-61.031s-54.519-26.895-82.111-30.938c-5.659-.829-9.303 4.922-6.136 9.685 15.441 23.221 36.723 44.354 63.044 61.031 26.321 16.676 54.519 26.894 82.111 30.938zm32.017-107.769c4.804-2.285 4.866-9.093.104-11.464-23.218-11.561-49.975-18.264-78.503-18.522s-55.402 5.961-78.825 17.101c-4.804 2.285-4.866 9.093-.104 11.465 23.218 11.561 49.975 18.264 78.503 18.522 28.529.257 55.402-5.961 78.825-17.102zm-153.303 189.743c4.237 2.325 8.745-1.138 7.591-5.831-5.626-22.883-16.46-45.842-32.537-66.772s-35.467-37.317-56.126-48.652c-4.237-2.325-8.745 1.138-7.591 5.831 5.626 22.883 16.46 45.842 32.537 66.772 16.077 20.929 35.467 37.316 56.126 48.652zm-61.577 12.284c3.041 2.28 6.864.092 6.438-3.685-2.076-18.414-8.165-37.469-18.502-55.533-10.338-18.063-23.683-32.966-38.508-44.083-3.041-2.28-6.864-.092-6.438 3.685 2.076 18.414 8.165 37.469 18.502 55.533 10.338 18.063 23.683 32.966 38.508 44.083zm-77.883 14.277c1.165 3.182 4.903 3.317 6.295.228 6.786-15.061 10.97-32.51 11.647-51.21s-2.234-36.406-7.914-51.918c-1.165-3.182-4.903-3.317-6.295-.228-6.786 15.061-10.97 32.51-11.647 51.21-.677 18.701 2.235 36.406 7.914 51.918z" fill="#9bcf1b"/><path d="m83.539 120.499c-20.609 22.63-44.469 40.219-69.809 52.573 21.316-62.29 65.979-113.749 123.549-143.937-1.112 1.173-29.654 64.916-53.74 91.364zm65.57-90.564c-12.516 22.718-20.324 49.173-21.767 77.666-1.442 28.493 3.655 55.602 13.813 79.467 2.083 4.895 8.883 5.24 11.45.58 12.516-22.718 20.324-49.173 21.767-77.666s-3.655-55.602-13.813-79.467c-2.083-4.895-8.883-5.24-11.45-.58zm164.123 37.922c-6.419-22.467-18.219-44.336-35.382-63.467-1.138-1.269-2.292-2.515-3.458-3.739-6.075-.432-12.208-.651-18.392-.651-10.704 0-21.255.657-31.614 1.933 5.928 10.776 13.224 21.13 21.887 30.786 17.163 19.131 37.629 33.226 59.271 42.036 4.439 1.807 9.004-2.289 7.688-6.898zm-68.724-10.607c-11.302-20.437-25.837-37.773-42.378-51.572-6.998 1.499-13.889 3.283-20.662 5.341 2.365 23.204 9.521 46.759 21.832 69.019 13.806 24.966 32.438 45.307 53.657 60.222 4.353 3.059 10.31-.235 10.033-5.548-1.352-25.902-8.676-52.496-22.482-77.462z" fill="#84b017"/><path d="m261.059 46.97c-9.973-9.279-7.71-25.558 4.339-31.914.128-.068.256-.135.385-.203 8.731-4.587 19.587-1.948 25.195 6.165 10.213 14.775 17.636 30.662 22.261 46.861 1.314 4.604-3.258 8.681-7.693 6.876-13.268-5.401-26.093-12.788-37.987-22.104-1.783-1.396-4.056-3.407-6.5-5.681zm-170.984 65.624c-2.199 2.885-4.385 5.544-6.536 7.905-20.609 22.63-44.469 40.219-69.809 52.573 10.568-30.882 26.874-59.101 47.647-83.386 15.458-18.072 43.113 3.995 28.698 22.908zm113.225-32.556c13.807 24.967 32.438 45.307 53.658 60.223 4.33 3.044 10.308-.262 10.032-5.548-1.352-25.902-8.676-52.496-22.482-77.463-.69-1.248-1.392-2.484-2.106-3.709-5.598-9.603-17.24-13.788-27.754-10.182-.139.048-.277.095-.416.143-13.367 4.61-19.58 20.101-13.031 32.633.682 1.305 1.382 2.606 2.099 3.903zm-75.958 27.564c-1.442 28.493 3.655 55.603 13.813 79.468 2.073 4.87 8.895 5.215 11.45.58 12.516-22.718 20.324-49.174 21.767-77.667.043-.84.079-1.68.111-2.518.498-13.364-10.135-24.496-23.508-24.496-12.442 0-22.691 9.69-23.487 22.107-.055.84-.103 1.682-.146 2.526z" fill="#9bcf1b"/><path d="m227.344 279.417c-8.522 8.522-22.443 8.143-30.509-.811-1.831-2.032-3.253-3.65-3.853-4.395-15.045-18.647-25.909-39.104-32.521-59.875-1.477-4.639 3.239-8.864 7.691-6.895 20.23 8.951 39.667 22.22 56.76 39.564.566.574 1.739 1.854 3.218 3.502 7.457 8.313 7.11 21.014-.786 28.91zm-40.146 40.146c7.987-7.987 7.554-21.075-.959-28.497-.929-.81-1.627-1.407-1.974-1.687-18.872-15.228-39.508-26.189-60.298-32.799-4.348-1.382-8.266 3.116-6.284 7.226 9.045 18.758 21.996 36.818 38.583 52.804.738.711 2.328 2.133 4.295 3.854 7.727 6.758 19.377 6.358 26.637-.901zm-39.478 13.23c-.714-.398-1.359-.746-1.908-1.026-13.154-6.712-26.744-11.191-40.12-13.491-3.473-.597-5.934 3.276-3.995 6.218 6.654 10.095 14.96 19.652 24.769 28.236 1.666 1.458 3.375 2.887 5.126 4.287 5.765 4.606 14.103 4.048 19.321-1.17 6.841-6.841 5.259-18.345-3.193-23.054zm172.988-130.448c1.331-.22 2.667-.397 4.008-.531 10.609-1.055 18.669-9.96 18.299-20.615-.043-1.242-.099-2.383-.171-3.367-1.466-20.097-6.186-39.192-13.588-56.566-2.082-4.886-8.863-5.173-11.426-.522-9.698 17.603-16.57 37.451-19.844 58.752-.01.062-.019.125-.029.19-1.952 13.264 9.527 24.85 22.751 22.659zm-88.15 28.821c.097.176.195.352.293.528 7.573 13.607 26.136 16.079 37.148 5.068 7.369-7.369 9.072-18.735 4.052-27.868-.095-.172-.19-.345-.285-.517-15.037-27.192-34.826-49.624-57.052-66.359-4.318-3.251-10.49.163-10.032 5.548 2.359 27.722 10.839 56.408 25.876 83.6zm-137.536 159.837c-4.191 1.161-8.253 2.53-12.167 4.091-2.786 1.111-2.878 5.056-.147 6.296 3.837 1.743 7.832 3.301 11.964 4.657 2.799.918 5.881.159 7.964-1.923 5.688-5.687.138-15.269-7.614-13.121zm379.728-288.697c-30.884 12.315-60.148 32.157-84.771 59.195-7.14 7.84-13.641 16.011-19.502 24.441-7.623 10.965-6.564 25.792 2.662 35.447.135.141.269.282.403.423 10.203 10.741 27.036 11.77 38.368 2.229 7.922-6.669 15.522-13.963 22.725-21.872 24.64-27.056 41.673-58.067 51.049-89.988 1.923-6.542-4.599-12.401-10.934-9.875zm-288.102 392.752c-1.664 1.664-2.281 4.106-1.625 6.365.802 2.763 1.689 5.468 2.656 8.109 1.042 2.847 5.049 2.993 6.295.229 1.155-2.563 2.234-5.194 3.234-7.89 2.404-6.483-5.669-11.703-10.56-6.813zm204.869-164.777c-3.364-2.131-6.758-4.156-10.177-6.077-9.052-5.084-20.397-3.44-27.738 3.901-10.123 10.123-8.864 27.002 2.803 35.299 3.219 2.289 6.522 4.509 9.91 6.655 26.321 16.677 54.52 26.895 82.112 30.938 5.351.784 9.13-5.18 6.136-9.684-15.442-23.221-36.725-44.355-63.046-61.032zm89.03-48.517c-16.002-7.969-33.686-13.629-52.472-16.462-3.704-.559-10.339-1.019-16.891-1.349-9.661-.487-18.478 5.348-21.918 14.388-.075.198-.151.396-.228.594-5.694 14.654 4.917 30.496 20.638 30.471 7.726-.012 14.417-.202 17.441-.593 19.042-2.461 37.019-7.83 53.323-15.584 4.785-2.275 4.85-9.103.107-11.465zm-136.151 88.882c-.576-.583-1.155-1.16-1.737-1.734-8.314-8.197-21.665-8.2-29.92.055-8.193 8.193-8.26 21.418-.216 29.757.566.587 1.137 1.172 1.713 1.754 19.369 19.581 41.713 33.893 64.816 42.707 4.559 1.74 9.031-2.684 7.342-7.262-8.562-23.197-22.629-45.696-41.998-65.277zm-42.203 39.722c-.062-.081-.124-.161-.186-.242-7.033-9.126-20.545-9.88-28.692-1.733l-.652.652c-6.77 6.77-7.58 17.54-1.754 25.138.035.046.07.091.104.136 16.078 20.93 35.468 37.318 56.127 48.653 3.997 2.193 8.679-1.403 7.59-5.831-5.625-22.883-16.459-45.843-32.537-66.773zm-40.359 42.56c-.446-1.066-1.085-2.441-1.836-3.982-4.368-8.969-16.285-10.952-23.339-3.897-5.044 5.044-5.642 12.975-1.509 18.79 1.657 2.331 3.367 4.596 5.125 6.792 7.634 9.538 16.179 17.793 25.283 24.621 2.815 2.111 6.838-.184 6.443-3.681-1.438-12.755-4.801-25.816-10.167-38.643z" fill="#b9e746"/><path d="m352.793 257.18c-76.662 81.51-156.367 154.219-234.985 214.354-4.434-2.849-8.774-5.83-13.015-8.939 79.224-60.201 159.674-133.398 237.043-215.658 2.413-2.566 6.288-3.083 9.292-1.242.043.027.087.053.131.08 4.009 2.453 4.754 7.981 1.534 11.405z" fill="#84b017"/></g></svg>